<svg width="87" height="40" viewBox="0 0 87 40" fill="none" xmlns="http://www.w3.org/2000/svg">
<g id="Group">
<path id="Vector" d="M78.7507 21.966L60.0781 19.043L62.5535 30.1582L78.7507 21.966Z" fill="#D12053"/>
<path id="Vector_2" d="M78.7471 21.9665L64.6767 2.4375L60.0781 19.047L78.7471 21.9665Z" fill="#E2136E"/>
<path id="Vector_3" d="M59.6414 18.822L44.8984 0L64.2048 2.30395L59.6414 18.822Z" fill="#D12053"/>
<path id="Vector_4" d="M52.9288 10.9568L44.7422 3.25H46.8971L52.9288 10.9568Z" fill="#9E1638"/>
<path id="Vector_5" d="M82.7294 12.4727L79.2646 21.8608L73.6484 14.1012L82.7294 12.4727Z" fill="#D12053"/>
<path id="Vector_6" d="M64.7344 29.596L78.3294 24.1404L78.8999 22.4062L64.7344 29.596Z" fill="#E2136E"/>
<path id="Vector_7" d="M53.8594 39.8928L59.6833 19.4844L62.6375 32.7628L53.8594 39.8928Z" fill="#9E1638"/>
<path id="Vector_8" d="M83.2747 12.5469L81.8451 16.4231L87 16.3387L83.2747 12.5469ZM0 14.1016C0.25 14.1227 0.503521 14.1684 0.771127 14.1684C1.03873 14.1684 1.25704 14.1227 1.54225 14.1016V22.3571C2.35563 20.9747 3.38028 20.0637 4.88732 20.0637C7.61268 20.0637 8.78169 22.7581 8.78169 25.2344C8.78169 28.1996 7.19718 31.0382 4.41901 31.0382C3.86279 31.0504 3.31382 30.9104 2.83156 30.6332C2.34931 30.3561 1.95215 29.9524 1.6831 29.4659C1.21831 29.8739 0.806338 30.3629 0.366197 30.8061H0.0140845L0 14.1016ZM1.50704 26.2439C1.50704 28.6499 2.52817 30.3277 4.20775 30.3277C6.38732 30.3277 7.08803 27.4012 7.08803 25.3259C7.08803 22.9164 6.29225 21.0205 4.40493 20.9994C2.2007 20.9818 1.50704 23.5882 1.50704 26.2474V26.2439Z" fill="#E2136E"/>
<path id="Vector_9" d="M15.8877 19.4403L14.2468 21.5508C15.7891 23.802 17.3877 26.0074 18.9369 28.2868L20.5003 30.749V30.8721C20.1165 30.8475 19.7679 30.7982 19.444 30.7982C19.12 30.7982 18.7116 30.8475 18.3665 30.8721C17.9405 30.0842 17.5179 29.3561 17.0355 28.642L12.8102 22.3985C12.7151 22.3 12.4862 22.2226 12.4862 22.3246V30.8721C12.1764 30.8475 11.9053 30.7982 11.6377 30.7982C11.37 30.7982 11.0602 30.8475 10.7891 30.8721V14.1008C11.0602 14.1219 11.3524 14.1747 11.6377 14.1747C11.9229 14.1747 12.1764 14.1219 12.4862 14.1008V21.6704C12.4862 21.8181 12.775 21.7196 12.9651 21.5227C13.3319 21.1428 13.6752 20.7411 13.9933 20.3197L18.7433 14.0938C18.9933 14.1149 19.2433 14.1676 19.5144 14.1676C19.7855 14.1676 19.9933 14.1149 20.2679 14.0938L15.8877 19.4403ZM28.6658 28.9832C28.6658 29.8556 28.6095 30.2988 29.7468 30.0103V30.4992C29.561 30.5922 29.3664 30.6665 29.1658 30.7208C28.1623 30.9213 27.3313 30.742 27.1764 29.4299L27.0038 29.6234C26.6684 30.0625 26.2357 30.4181 25.7396 30.6622C25.2436 30.9063 24.6977 31.0323 24.1447 31.0304C22.7785 31.0304 21.5813 29.954 21.5813 28.3043C21.5813 25.7612 23.3419 25.427 25.1482 25.0929C26.6764 24.8045 27.1975 24.6708 27.1975 23.598C27.1975 21.9448 26.3877 20.988 24.9405 20.988C24.4462 20.9783 23.961 21.1206 23.5503 21.3955C23.1397 21.6705 22.8236 22.0648 22.6447 22.5251H22.4334V21.287C23.3023 20.5318 24.4055 20.0994 25.5567 20.0629C27.5813 20.0629 28.6834 21.287 28.6834 23.809L28.6658 28.9832ZM27.1236 25.3004L26.444 25.4552C25.1306 25.7436 23.1623 25.9652 23.1623 28.0018C23.1623 29.4088 23.8665 30.1123 25.0496 30.1123C25.6616 30.037 26.2213 29.7298 26.613 29.2541C26.7538 29.0923 27.1412 28.7124 27.1412 28.5506L27.1236 25.3004ZM32.106 28.6877C32.5637 29.5636 33.4158 30.348 34.3243 30.348C34.8426 30.3216 35.3303 30.0946 35.684 29.715C36.0376 29.3355 36.2294 28.8333 36.2186 28.3149C36.2186 25.3039 31.6588 27.2597 31.6588 23.3623C31.6588 21.2237 33.0672 20.0664 34.8031 20.0664C35.5707 20.0495 36.3278 20.2493 36.9862 20.6433C36.7961 21.1593 36.6431 21.6883 36.5285 22.2261H36.3524C36.0989 21.491 35.4264 20.7523 34.7116 20.7523C33.7468 20.7523 32.951 21.4031 32.951 22.6096C32.951 25.4622 37.5109 23.9427 37.5109 27.5129C37.5109 29.9013 35.6588 31.0304 33.9546 31.0304C33.1011 31.0297 32.2655 30.7857 31.5461 30.3269C31.7189 29.7917 31.8542 29.2452 31.951 28.6913L32.106 28.6877ZM40.1095 14.1008C40.3665 14.1219 40.6165 14.1676 40.8841 14.1676C41.1517 14.1676 41.37 14.1219 41.6588 14.1008V22.2226C42.3348 20.8614 43.3947 20.0629 44.7679 20.0629C47.0074 20.0629 47.8771 21.5965 47.8771 24.4105V30.8721C47.5848 30.8475 47.3595 30.8053 47.1024 30.8053C46.8454 30.8053 46.5813 30.851 46.3278 30.8721V24.9205C46.3278 22.4583 45.8313 21.2166 44.1869 21.2166C42.4475 21.2166 41.6588 22.4689 41.6588 24.7869V30.8721C41.37 30.8475 41.1412 30.8053 40.8841 30.8053C40.6271 30.8053 40.37 30.851 40.1095 30.8721V14.1008Z" fill="white"/>
</g>
</svg>
