<svg xmlns="http://www.w3.org/2000/svg" width="24" height="24" viewBox="0 0 24 24" fill="none">
  <g clip-path="url(#clip0_1245_11977)">
    <path d="M24 12C24 18.6273 18.6273 24 12 24C5.37265 24 0 18.6273 0 12C0 5.37265 5.37265 0 12 0C18.6273 0 24 5.37265 24 12Z" fill="#F2F2F2"/>
    <path d="M22.4432 6.09004V6.09394C22.2905 5.82364 22.1313 5.55799 21.9584 5.30159L21.0672 9.08924L16.3713 10.6545L12.4283 7.49999V2.85369L16.9244 1.05604L16.8332 1.01604C16.7332 0.97284 16.6328 0.93049 16.5321 0.88889C13.6384 -0.291259 10.3986 -0.29646 7.50115 0.87439C7.383 0.92244 7.2662 0.97189 7.1508 1.02289L7.05275 1.06719L11.5717 2.85449V7.49999L7.6287 10.6545L2.934 9.08964L2.04275 5.30154C1.8871 5.53244 1.74275 5.77129 1.60275 6.01329V6.00959C0.551148 7.82907 -0.00171318 9.89383 3.98793e-06 11.9953C3.98793e-06 12.3717 0.019504 12.7432 0.054104 13.1109L2.7133 9.91834L7.35565 11.4656L8.53475 16.1824L6.24005 19.2424L1.96955 18.568C2.04355 18.6801 2.1217 18.7889 2.19885 18.898L2.18285 18.8957C3.72458 21.0889 5.95508 22.7038 8.5199 23.484L8.51115 23.4676C8.8385 23.5676 9.16955 23.658 9.508 23.7297L6.9504 19.7256L9.21525 16.7061H14.7868L17.0844 19.7404L14.8541 23.6461C15.1397 23.576 15.4203 23.4928 15.6981 23.4029L15.6905 23.4176C18.1684 22.6145 20.3186 21.0283 21.8172 18.8976L21.8012 18.9C21.8783 18.7908 21.9565 18.682 22.0305 18.5701L17.7801 19.2384L15.4656 16.1824L16.6444 11.4667L21.2867 9.91829L23.9461 13.1095C23.9696 12.8544 23.9832 12.5964 23.9912 12.3376C23.9944 12.224 24 12.1113 24 11.9972C24.0021 9.92646 23.4656 7.89079 22.4432 6.09004Z" fill="#333333"/>
    <path d="M12 24C5.37265 24 0 18.6273 0 12C0 5.37265 5.37265 0 12 0C18.6273 0 24 5.37265 24 12C23.9926 18.6242 18.6242 23.9926 12 24ZM12 0.8C5.8145 0.8 0.8 5.8145 0.8 12C0.8 18.1855 5.8145 23.2 12 23.2C18.1855 23.2 23.2 18.1855 23.2 12C23.193 5.8174 18.1826 0.807 12 0.8Z" fill="white"/>
  </g>
  <defs>
    <clipPath id="clip0_1245_11977">
      <rect width="24" height="24" fill="white"/>
    </clipPath>
  </defs>
</svg>