<svg width="20" height="20" viewBox="0 0 20 20" fill="none" xmlns="http://www.w3.org/2000/svg">
<g id="vuesax/linear/bag-tick-2">
<g id="bag-tick-2">
<path id="Vector" d="M9.9974 15.8307C11.8383 15.8307 13.3307 14.3383 13.3307 12.4974C13.3307 10.6564 11.8383 9.16406 9.9974 9.16406C8.15645 9.16406 6.66406 10.6564 6.66406 12.4974C6.66406 14.3383 8.15645 15.8307 9.9974 15.8307Z" stroke="white" stroke-opacity="0.8" stroke-width="1.2" stroke-miterlimit="10" stroke-linecap="round" stroke-linejoin="round"/>
<path id="Vector_2" d="M8.70312 12.4964L9.24479 13.038C9.40313 13.1964 9.66146 13.2047 9.81979 13.0464L11.3031 11.6797" stroke="white" stroke-opacity="0.8" stroke-width="1.2" stroke-linecap="round" stroke-linejoin="round"/>
<path id="Vector_3" d="M7.50327 18.3307H12.5033C15.8533 18.3307 16.4533 16.9891 16.6283 15.3557L17.2533 10.3557C17.4783 8.3224 16.8949 6.66406 13.3366 6.66406H6.66994C3.11161 6.66406 2.52827 8.3224 2.75327 10.3557L3.37827 15.3557C3.55327 16.9891 4.15327 18.3307 7.50327 18.3307Z" stroke="white" stroke-opacity="0.8" stroke-width="1.2" stroke-miterlimit="10" stroke-linecap="round" stroke-linejoin="round"/>
<path id="Vector_4" d="M6.25 6.38997V5.58163C6.25 3.70663 7.75833 1.86496 9.63333 1.68996C11.8667 1.4733 13.75 3.23163 13.75 5.4233V6.5733" stroke="white" stroke-opacity="0.8" stroke-width="1.2" stroke-miterlimit="10" stroke-linecap="round" stroke-linejoin="round"/>
</g>
</g>
</svg>
