<svg xmlns="http://www.w3.org/2000/svg" width="24" height="24" viewBox="0 0 24 24" fill="none">
  <g clip-path="url(#clip0_1245_11379)">
    <path d="M22.593 2.72273C22.671 2.80083 22.6711 2.92744 22.593 3.00555L17.1975 8.40288C17.1864 8.41303 17.1686 8.41523 17.158 8.4046L15.6205 6.86529C15.6013 6.84614 15.6015 6.8264 15.6206 6.80726L21.0086 1.42113C21.0867 1.34305 21.2133 1.34306 21.2914 1.42115L22.593 2.72273ZM23.9156 1.55538L22.4568 0.0985062C22.431 0.0722582 22.4002 0.0514121 22.3663 0.0371827C22.3323 0.0229532 22.2959 0.015625 22.259 0.015625C22.2222 0.015625 22.1858 0.0229532 22.1518 0.0371827C22.1178 0.0514121 22.087 0.0722582 22.0612 0.0985062L21.4668 0.692881C21.4408 0.718626 21.4201 0.749278 21.4059 0.783069C21.3918 0.816859 21.3844 0.853119 21.3843 0.889756C21.3841 0.931421 21.3937 0.972555 21.4125 1.00976L23.0025 2.60163C23.0547 2.62646 23.1134 2.63456 23.1704 2.62483C23.2275 2.6151 23.2801 2.58801 23.3212 2.54726L23.9156 1.95288C23.9419 1.9269 23.9628 1.89595 23.977 1.86183C23.9913 1.82771 23.9986 1.79111 23.9986 1.75413C23.9986 1.71716 23.9913 1.68055 23.977 1.64643C23.9628 1.61231 23.9419 1.58137 23.9156 1.55538ZM16.9387 9.45101C16.8708 9.24072 16.8738 9.01459 16.9462 8.80711C16.9597 8.76858 16.9517 8.72523 16.9228 8.69637L15.3132 7.08669C15.2847 7.05825 15.2421 7.05006 15.204 7.06277C14.9915 7.13354 14.7608 7.13243 14.5481 7.05851C14.3207 6.97808 14.1065 6.86434 13.9125 6.72101C13.8016 6.6385 13.6648 6.59877 13.527 6.6091C13.3892 6.61944 13.2598 6.67914 13.1625 6.77726L0.279349 19.6604C0.145357 19.7925 0.0542095 19.9618 0.0177603 20.1464C-0.018689 20.331 0.00124629 20.5223 0.0749737 20.6954C0.742473 22.1058 1.87725 23.2419 3.28685 23.911C3.4013 23.9598 3.52432 23.9853 3.64872 23.986C3.77435 23.9857 3.89866 23.9605 4.01451 23.9119C4.13035 23.8633 4.23544 23.7923 4.32372 23.7029L17.205 10.8198C17.3055 10.724 17.3671 10.5944 17.3778 10.4559C17.3886 10.3174 17.3477 10.1799 17.2631 10.0698C17.1228 9.88207 17.0133 9.6732 16.9387 9.45101ZM12.5981 19.4841C12.2273 19.4841 11.8647 19.5941 11.5564 19.8001C11.2481 20.0062 11.0077 20.299 10.8658 20.6416C10.7239 20.9842 10.6868 21.3612 10.7591 21.7249C10.8315 22.0886 11.0101 22.4227 11.2723 22.685C11.5345 22.9472 11.8686 23.1258 12.2323 23.1981C12.596 23.2705 12.973 23.2333 13.3156 23.0914C13.6582 22.9495 13.9511 22.7092 14.1571 22.4008C14.3631 22.0925 14.4731 21.73 14.4731 21.3591C14.4746 21.1125 14.4271 20.868 14.3334 20.6398C14.2397 20.4117 14.1017 20.2044 13.9273 20.03C13.7528 19.8556 13.5456 19.7175 13.3174 19.6238C13.0892 19.5301 12.8447 19.4826 12.5981 19.4841Z" fill="white"/>
  </g>
  <defs>
    <clipPath id="clip0_1245_11379">
      <rect width="24" height="24" fill="white"/>
    </clipPath>
  </defs>
</svg>