<svg width="449" height="324" viewBox="0 0 449 324" fill="none" xmlns="http://www.w3.org/2000/svg">
<path d="M2 52.3912V308.637C2 316.017 7.983 322 15.3634 322H433.637C441.017 322 447 316.017 447 308.637V54.5863C447 47.2737 441.122 41.3191 433.81 41.2241L382.653 40.5591C378.351 40.5031 374.339 38.379 371.874 34.8523L352.921 7.73543C350.41 4.14315 346.298 2.01033 341.915 2.02763L120.398 2.90241C116.658 2.91718 113.095 4.49896 110.575 7.26335L86.0329 34.1873C83.5254 36.9382 79.9842 38.5186 76.262 38.5479L15.2582 39.0282C7.91905 39.086 2 45.0519 2 52.3912Z" fill="white" fill-opacity="0.05"/>
<path d="M1.33183 52.3912V308.637C1.33183 316.386 7.61398 322.668 15.3634 322.668H433.637C441.386 322.668 447.668 316.386 447.668 308.637V54.5863C447.668 46.9081 441.497 40.6558 433.819 40.556L382.662 39.8909C378.575 39.8378 374.763 37.8199 372.421 34.4695L353.469 7.35265C350.832 3.58076 346.514 1.3413 341.912 1.35947L120.395 2.23425C116.468 2.24976 112.727 3.91062 110.081 6.81323L85.5391 33.7372C83.157 36.3505 79.7928 37.8519 76.2568 37.8798L15.2529 38.3601C7.54683 38.4208 1.33183 44.6849 1.33183 52.3912Z" stroke="white" stroke-opacity="0.1" stroke-width="1.33634"/>
</svg>
