<svg width="449" height="246" viewBox="0 0 449 246" fill="none" xmlns="http://www.w3.org/2000/svg">
<path d="M144.284 2H15.3634C7.98298 2 2 7.98298 2 15.3634V230.637C2 238.017 7.983 244 15.3634 244H433.637C441.017 244 447 238.017 447 230.637V15.3634C447 7.98298 441.017 2 433.637 2H306.308C302.866 2 299.556 3.32841 297.069 5.7084L275.779 26.0811C273.292 28.4611 269.983 29.7895 266.54 29.7895H183.43C179.919 29.7895 176.548 28.4074 174.048 25.9422L153.666 5.84731C151.166 3.38205 147.795 2 144.284 2Z" fill="url(#paint0_radial_2814_40734)"/>
<path d="M144.284 1.33183H15.3634C7.61396 1.33183 1.33183 7.61396 1.33183 15.3634V230.637C1.33183 238.386 7.61398 244.668 15.3634 244.668H433.637C441.386 244.668 447.668 238.386 447.668 230.637V15.3634C447.668 7.61396 441.386 1.33183 433.637 1.33183H306.308C302.694 1.33183 299.219 2.72666 296.607 5.22565L275.317 25.5983C272.955 27.8593 269.81 29.1213 266.54 29.1213H183.43C180.094 29.1213 176.892 27.8084 174.517 25.4664L154.135 5.37151C151.51 2.78298 147.971 1.33183 144.284 1.33183Z" stroke="#CA00F0" stroke-opacity="0.2" stroke-width="1.33634"/>
<defs>
<radialGradient id="paint0_radial_2814_40734" cx="0" cy="0" r="1" gradientUnits="userSpaceOnUse" gradientTransform="translate(231.85 123) rotate(-90) scale(488.515 898.302)">
<stop stop-color="#5A006B" stop-opacity="0.1"/>
<stop offset="1" stop-color="#E86BFF"/>
</radialGradient>
</defs>
</svg>
