<svg width="24" height="24" viewBox="0 0 24 24" fill="none" xmlns="http://www.w3.org/2000/svg">
<g id="casino-chips-svgrepo-com 1" clip-path="url(#clip0_327_3821)">
<g id="icons">
<g id="ui-gambling-website-lined-icnos-casinoshunter">
<g id="1">
<path id="casino-chips" d="M4.12552 19.9399L4.14762 19.9131C4.77305 20.461 5.55433 20.8352 6.41627 20.9607L6.61659 20.9852L6.61672 23.6456C5.02857 23.5477 3.58224 22.9256 2.44857 21.9503L2.27219 21.7933L4.12552 19.9399ZM10.0915 19.8027L11.8989 21.61C11.9225 21.6336 11.9481 21.654 11.9761 21.6701C10.8581 22.7517 9.38441 23.4679 7.74747 23.6261L7.50073 23.6456L7.50101 20.9852C8.49968 20.886 9.40057 20.4545 10.0915 19.8027ZM2.63855 17.0289L2.66026 17.0276C2.73654 17.798 3.0106 18.5103 3.43097 19.1129L3.54919 19.2744L3.50039 19.3148L1.65995 21.1556C0.75799 20.0908 0.165379 18.7557 0.0208309 17.2889L0 17.0288L2.63855 17.0289ZM11.4573 17.0276L11.4791 17.0289L14.1176 17.0288C14.0299 18.4511 13.5218 19.7597 12.7161 20.8318L12.5615 21.0301L12.524 20.9849L10.6721 19.1336C11.1007 18.5266 11.3802 17.8069 11.4573 17.0276ZM7.0588 13.0506C9.01179 13.0506 10.595 14.6338 10.595 16.5868C10.595 18.5398 9.01179 20.123 7.0588 20.123C5.10581 20.123 3.5226 18.5398 3.5226 16.5868C3.5226 14.6338 5.10581 13.0506 7.0588 13.0506ZM14.816 16.9322C15.2668 17.1821 15.7674 17.354 16.2986 17.4313L16.4989 17.4558L16.4991 20.1162C15.6964 20.0667 14.9299 19.8833 14.2218 19.5881C14.5674 18.7653 14.7749 17.8704 14.816 16.9322ZM19.9738 16.2733L21.7812 18.0806C21.8048 18.1042 21.8305 18.1246 21.8584 18.1406C20.7405 19.2223 19.2668 19.9385 17.6298 20.0967L17.3831 20.1162L17.3834 17.4558C18.382 17.3566 19.2829 16.925 19.9738 16.2733ZM21.3397 13.4982L21.3614 13.4994L24 13.4994C23.9123 14.9217 23.4042 16.2303 22.5984 17.3024L22.4439 17.5006L22.4063 17.4555L20.5545 15.6041C20.983 14.9972 21.2625 14.2775 21.3397 13.4982ZM18.0137 9.6874C19.4423 10.1409 20.4774 11.4783 20.4774 13.0574C20.4774 15.0104 18.8941 16.5936 16.9412 16.5936C16.1313 16.5936 15.3851 16.3214 14.789 15.8635C14.7356 15.2722 14.6148 14.7007 14.4354 14.1559C16.1336 13.1861 17.4302 11.5926 18.0137 9.6874ZM1.65934 12.0188L3.50039 13.8588L3.54919 13.8992C3.10265 14.4815 2.79773 15.178 2.68592 15.9374L2.66026 16.146L2.63855 16.1448L0 16.1448C0.096739 14.5763 0.704711 13.1461 1.65934 12.0188ZM10.4954 13.8066L12.3769 11.9244C13.3256 13.0056 13.9498 14.3787 14.0974 15.8914L14.1176 16.1448L11.4791 16.1448L11.4573 16.146C11.3768 15.3321 11.0754 14.5832 10.6141 13.9598L10.4954 13.8066ZM13.6209 10.6262L15.4283 12.4335C15.4519 12.4571 15.4775 12.4775 15.5055 12.4936C15.1078 12.8784 14.6651 13.2169 14.186 13.5005C13.8284 12.676 13.3321 11.9258 12.7264 11.2793C13.0517 11.0999 13.3522 10.8797 13.6209 10.6262ZM6.61672 9.52803L6.61679 12.1666C6.61679 12.1742 6.61696 12.1818 6.61799 12.1883C5.6763 12.2815 4.8215 12.6703 4.15001 13.2603L4.13808 13.2468L4.12552 13.2337L2.27219 11.3803C3.43038 10.315 4.94498 9.63114 6.61672 9.52803ZM7.50082 12.1666L7.50073 9.52803C9.04316 9.62313 10.4518 10.2126 11.5702 11.1399L11.7539 11.2976L9.8732 13.1782C9.2657 12.676 8.52172 12.3332 7.70521 12.2135L7.49961 12.1883L7.50082 12.1666ZM22.2592 8.395C23.2079 9.47624 23.8321 10.8492 23.9798 12.3619L24 12.6153L21.3614 12.6154L21.3397 12.6166C21.2591 11.8027 20.9578 11.0538 20.4964 10.4304L20.3778 10.2772L22.2592 8.395ZM14.9868 7.85117L15.0085 7.85238L17.647 7.85229C17.5593 9.27464 17.0512 10.5832 16.2455 11.6554L16.0909 11.8536L16.0534 11.8084L14.2015 9.95708C14.6301 9.35012 14.9096 8.6304 14.9868 7.85117ZM10.5882 3.87417C12.5412 3.87417 14.1244 5.45738 14.1244 7.41036C14.1244 8.84468 13.2705 10.0796 12.0432 10.6343C10.7637 9.56055 9.13314 8.89297 7.34884 8.82745C7.15755 8.39413 7.05202 7.91457 7.05202 7.41036C7.05202 5.45738 8.63523 3.87417 10.5882 3.87417ZM18.2438 6.10586C19.4484 6.32899 20.5459 6.85873 21.4526 7.61053L21.6362 7.7682L19.7556 9.6488C19.31 9.28049 18.791 8.99784 18.2238 8.82614C18.3087 8.3674 18.3529 7.89405 18.3529 7.41036C18.3529 6.96581 18.3156 6.52999 18.2438 6.10586ZM6.18968 7.85117C6.22397 8.19754 6.29823 8.53215 6.40781 8.85033C5.49685 8.92469 4.63087 9.15744 3.83668 9.52015C3.69507 9.06929 3.5981 8.59809 3.55024 8.11245L3.52941 7.85229L6.16796 7.85238L6.18968 7.85117ZM5.18876 2.84234L7.02981 4.68237L7.0786 4.72276C6.63206 5.305 6.32714 6.00156 6.21533 6.76094L6.18968 6.96955L6.16796 6.96835L3.52941 6.96828C3.62615 5.39978 4.23412 3.96959 5.18876 2.84234ZM15.9063 2.74794C16.855 3.82918 17.4792 5.20219 17.6269 6.71489L17.647 6.96828L15.0085 6.96835L14.9868 6.96955C14.9062 6.15567 14.6048 5.4067 14.1435 4.78334L14.0248 4.63016L15.9063 2.74794ZM10.1461 0.351562L10.1462 2.99011C10.1462 2.99775 10.1464 3.00535 10.1474 3.01183C9.20571 3.10506 8.35091 3.49383 7.67942 4.08383L7.66749 4.07035L7.65493 4.05725L5.8016 2.20386C6.95979 1.13852 8.47439 0.454669 10.1461 0.351562ZM11.0301 0.351562C12.5726 0.446657 13.9812 1.03612 15.0996 1.96347L15.2833 2.12114L13.4026 4.00174C12.7951 3.49958 12.0511 3.1567 11.2346 3.03705L11.029 3.01183L11.0302 2.99011L11.0301 0.351562Z" fill="white"/>
</g>
</g>
</g>
</g>
<defs>
<clipPath id="clip0_327_3821">
<rect width="24" height="24" fill="white"/>
</clipPath>
</defs>
</svg>
