<svg width="20" height="20" viewBox="0 0 20 20" fill="none" xmlns="http://www.w3.org/2000/svg">
<g id="vuesax/linear/empty-wallet-time">
<g id="Group">
<path id="Vector" d="M15.0359 11.2943C14.6859 11.6359 14.4859 12.1276 14.5359 12.6526C14.6109 13.5526 15.4359 14.2109 16.3359 14.2109H17.9193V15.2026C17.9193 16.9276 16.5109 18.3359 14.7859 18.3359H6.36927C7.06094 17.7276 7.5026 16.8359 7.5026 15.8359C7.5026 13.9943 6.01094 12.5026 4.16927 12.5026C3.38594 12.5026 2.66094 12.7776 2.08594 13.2359V9.59428C2.08594 7.86928 3.49427 6.46094 5.21927 6.46094H14.7859C16.5109 6.46094 17.9193 7.86928 17.9193 9.59428V10.7943H16.2359C15.7693 10.7943 15.3443 10.9776 15.0359 11.2943Z" stroke="white" stroke-opacity="0.8" stroke-width="1.2" stroke-linecap="round" stroke-linejoin="round"/>
<path id="Vector_2" d="M2.08594 9.59494V6.53662C2.08594 5.54496 2.69427 4.66159 3.61927 4.31159L10.2359 1.81159C11.2693 1.42825 12.3776 2.18661 12.3776 3.29494V6.4616" stroke="white" stroke-opacity="0.8" stroke-width="1.2" stroke-linecap="round" stroke-linejoin="round"/>
</g>
<path id="Vector_3" d="M18.7977 11.639V13.3557C18.7977 13.8141 18.431 14.189 17.9644 14.2057H16.331C15.431 14.2057 14.606 13.5474 14.531 12.6474C14.481 12.1224 14.681 11.6307 15.031 11.289C15.3394 10.9724 15.7644 10.7891 16.231 10.7891H17.9644C18.431 10.8057 18.7977 11.1807 18.7977 11.639Z" stroke="white" stroke-opacity="0.8" stroke-width="1.2" stroke-linecap="round" stroke-linejoin="round"/>
<path id="Vector_4" d="M5.83594 10H11.6693" stroke="white" stroke-opacity="0.8" stroke-width="1.2" stroke-linecap="round" stroke-linejoin="round"/>
<g id="Group_2">
<path id="Vector_5" d="M7.5026 15.8333C7.5026 16.8333 7.06094 17.725 6.36927 18.3333C5.7776 18.85 5.01094 19.1667 4.16927 19.1667C2.3276 19.1667 0.835938 17.675 0.835938 15.8333C0.835938 14.7833 1.31927 13.8417 2.08594 13.2333C2.66094 12.775 3.38594 12.5 4.16927 12.5C6.01094 12.5 7.5026 13.9917 7.5026 15.8333Z" stroke="white" stroke-opacity="0.8" stroke-width="1.2" stroke-miterlimit="10" stroke-linecap="round" stroke-linejoin="round"/>
<path id="Vector_6" d="M4.3776 14.7891V16.0391L3.33594 16.6641" stroke="white" stroke-opacity="0.8" stroke-width="1.2" stroke-miterlimit="10" stroke-linecap="round" stroke-linejoin="round"/>
</g>
</g>
</svg>
