<svg xmlns="http://www.w3.org/2000/svg" width="20" height="20" viewBox="0 0 20 20" fill="none">
  <path d="M8.08445 11.0333C8.02165 11.0333 6.70425 11.0337 6.09665 11.0331C5.78385 11.0329 5.67225 10.9205 5.67225 10.6057C5.67175 9.79712 5.67175 8.98852 5.67225 8.17992C5.67245 7.86912 5.79045 7.75052 6.09925 7.75032C6.70685 7.74992 8.01705 7.75012 8.08445 7.75012V5.98972C8.08485 5.19492 8.22665 4.43412 8.63045 3.73752C9.04385 3.02452 9.64545 2.53612 10.4165 2.25372C10.9103 2.07272 11.4229 2.00052 11.9469 2.00012C12.6025 1.99972 13.2581 2.00032 13.9139 2.00152C14.1957 2.00192 14.3207 2.12652 14.3213 2.41032C14.3225 3.17092 14.3225 3.93152 14.3213 4.69192C14.3209 4.97872 14.2011 5.09392 13.9129 5.09712C13.3755 5.10292 12.8377 5.09932 12.3009 5.12092C11.7587 5.12092 11.4735 5.38572 11.4735 5.94692C11.4605 6.54052 11.4681 7.13472 11.4681 7.74992C11.5189 7.74992 13.0619 7.74972 13.7831 7.74992C14.1107 7.74992 14.2227 7.86252 14.2227 8.19192C14.2227 8.99612 14.2225 9.80052 14.2219 10.6047C14.2217 10.9293 14.1165 11.0329 13.7868 11.0331C13.0656 11.0335 11.5286 11.0333 11.4615 11.0333V17.5423C11.4615 17.8893 11.3523 17.9999 11.0099 17.9999H8.50525C8.20265 17.9999 8.08465 17.8823 8.08465 17.5797L8.08445 11.0333Z" fill="white"/>
</svg>