<svg width="22" height="22" viewBox="0 0 22 22" fill="none" xmlns="http://www.w3.org/2000/svg">
<g id="star-svgrepo-com 1">
<path id="Vector" d="M8.393 4.96029C9.55409 2.87739 10.1346 1.83594 11.0026 1.83594C11.8706 1.83594 12.4511 2.87738 13.6122 4.96028L13.9126 5.49915C14.2426 6.09104 14.4075 6.387 14.6648 6.58226C14.922 6.77753 15.2423 6.85001 15.883 6.99498L16.4664 7.12697C18.721 7.63712 19.8484 7.89219 20.1167 8.75469C20.3849 9.61715 19.6163 10.5159 18.0792 12.3133L17.6815 12.7784C17.2447 13.2891 17.0263 13.5445 16.928 13.8605C16.8299 14.1765 16.8629 14.5172 16.9289 15.1987L16.989 15.8191C17.2214 18.2173 17.3376 19.4164 16.6354 19.9495C15.9332 20.4825 14.8776 19.9965 12.7665 19.0245L12.2204 18.773C11.6205 18.4968 11.3206 18.3587 11.0026 18.3587C10.6846 18.3587 10.3847 18.4968 9.78481 18.773L9.23866 19.0245C7.12756 19.9965 6.07202 20.4825 5.36983 19.9495C4.66763 19.4164 4.78383 18.2173 5.01622 15.8191L5.07634 15.1987C5.14238 14.5172 5.1754 14.1765 5.07714 13.8605C4.9789 13.5445 4.7605 13.2891 4.3237 12.7784L3.92603 12.3133C2.38892 10.5159 1.62036 9.61715 1.88857 8.75469C2.15679 7.89219 3.28414 7.63712 5.53885 7.12697L6.12217 6.99498C6.76289 6.85001 7.08324 6.77753 7.34047 6.58226C7.59769 6.387 7.76268 6.09105 8.09262 5.49915L8.393 4.96029Z" fill="white"/>
</g>
</svg>
