<svg xmlns="http://www.w3.org/2000/svg" width="28" height="28" viewBox="0 0 28 28" fill="none">
  <mask id="mask0_1489_24271" style="mask-type:alpha" maskUnits="userSpaceOnUse" x="0" y="0" width="28" height="28">
    <rect width="28" height="28" fill="#D9D9D9"/>
  </mask>
  <g mask="url(#mask0_1489_24271)">
    <path d="M6.9974 16.3333C6.9974 17.3444 7.20156 18.3021 7.6099 19.2063C8.01823 20.1104 8.60156 20.9028 9.35989 21.5833C9.34045 21.4861 9.33073 21.3986 9.33073 21.3208V21.0583C9.33073 20.4361 9.44739 19.8528 9.68073 19.3083C9.91406 18.7639 10.2543 18.2681 10.7016 17.8208L13.9974 14.5833L17.2932 17.8208C17.7404 18.2681 18.0807 18.7639 18.3141 19.3083C18.5474 19.8528 18.6641 20.4361 18.6641 21.0583V21.3208C18.6641 21.3986 18.6543 21.4861 18.6349 21.5833C19.3932 20.9028 19.9766 20.1104 20.3849 19.2063C20.7932 18.3021 20.9974 17.3444 20.9974 16.3333C20.9974 15.3611 20.8175 14.4424 20.4578 13.5771C20.0981 12.7118 19.5779 11.9389 18.8974 11.2583C18.5085 11.5111 18.1002 11.7007 17.6724 11.8271C17.2446 11.9535 16.8071 12.0167 16.3599 12.0167C15.1543 12.0167 14.1092 11.6181 13.2245 10.8208C12.3398 10.0236 11.8293 9.04167 11.6932 7.875C10.9349 8.51667 10.2641 9.18264 9.68073 9.87292C9.09739 10.5632 8.60642 11.2632 8.20781 11.9729C7.8092 12.6826 7.50781 13.4069 7.30365 14.1458C7.09948 14.8847 6.9974 15.6139 6.9974 16.3333ZM13.9974 17.85L12.3349 19.4833C12.121 19.6972 11.9557 19.9403 11.8391 20.2125C11.7224 20.4847 11.6641 20.7667 11.6641 21.0583C11.6641 21.6806 11.8925 22.2153 12.3495 22.6625C12.8064 23.1097 13.3557 23.3333 13.9974 23.3333C14.6391 23.3333 15.1884 23.1097 15.6453 22.6625C16.1023 22.2153 16.3307 21.6806 16.3307 21.0583C16.3307 20.7472 16.2724 20.4604 16.1557 20.1979C16.0391 19.9354 15.8738 19.6972 15.6599 19.4833L13.9974 17.85ZM13.9974 3.5V7.35C13.9974 8.01111 14.2259 8.56528 14.6828 9.0125C15.1398 9.45972 15.6988 9.68334 16.3599 9.68334C16.7099 9.68334 17.0356 9.61042 17.337 9.46459C17.6384 9.31875 17.9057 9.1 18.1391 8.80833L18.6641 8.16667C20.1029 8.98334 21.2404 10.1208 22.0766 11.5792C22.9127 13.0375 23.3307 14.6222 23.3307 16.3333C23.3307 18.9389 22.4266 21.1458 20.6182 22.9542C18.8099 24.7625 16.6029 25.6667 13.9974 25.6667C11.3918 25.6667 9.1849 24.7625 7.37656 22.9542C5.56823 21.1458 4.66406 18.9389 4.66406 16.3333C4.66406 13.825 5.50503 11.4431 7.18698 9.1875C8.86892 6.93195 11.1391 5.03611 13.9974 3.5Z" fill="white"/>
  </g>
</svg>