<svg width="22" height="22" viewBox="0 0 22 22" fill="none" xmlns="http://www.w3.org/2000/svg">
<g id="football-ball-svgrepo-com 1">
<path id="primary" d="M11.0026 20.1693C16.0652 20.1693 20.1693 16.0652 20.1693 11.0026C20.1693 5.93999 16.0652 1.83594 11.0026 1.83594C5.93999 1.83594 1.83594 5.93999 1.83594 11.0026C1.83594 16.0652 5.93999 20.1693 11.0026 20.1693Z" fill="white"/>
<path id="secondary" d="M13.8553 10.6741L13.7745 10.6953L13.7501 10.7752L13.2001 12.5719L13.1796 12.6389L13.2178 12.6976L15.5462 16.2726L15.5905 16.3408H15.6719H18.295C17.1824 17.8437 15.6343 18.9684 13.8611 19.5619L14.5128 17.5665L14.535 17.4983L14.496 17.4382L12.0485 13.6707L12.0041 13.6024H11.9227H10.0894H10.007L9.9628 13.6719L7.5428 17.4761L7.50497 17.5356L7.52661 17.6026L8.17086 19.5998C6.39663 19.0108 4.84913 17.8846 3.74305 16.3774H6.3402H6.42151L6.46589 16.3093L8.79422 12.7343L8.8322 12.676L8.8122 12.6093L8.2622 10.776L8.23805 10.6955L8.15678 10.6741L3.98595 9.57405L3.91715 9.55591L3.85957 9.59771L1.98957 10.9555C2.00269 9.07795 2.60574 7.2541 3.71022 5.74068L4.44661 8.02348L4.47166 8.10115L4.55049 8.1223L8.68466 9.23147L8.75639 9.25071L8.81518 9.20534L10.181 8.15117L10.2394 8.10614V8.03243V3.92576V3.84933L10.1775 3.80441L8.26675 2.41624C10.0478 1.8425 11.9643 1.8425 13.7453 2.41624L11.8345 3.80441L11.7727 3.84933V3.92576V8.03243V8.10614L11.831 8.15117L13.1969 9.20534L13.2557 9.25071L13.3274 9.23147L17.4616 8.1223L17.5395 8.1014L17.565 8.02486L18.3268 5.73956C19.4227 7.25632 20.017 9.0804 20.0227 10.9556L18.1525 9.59771L18.0949 9.55591L18.0261 9.57405L13.8553 10.6741Z" fill="#4F4F4F" stroke="white" stroke-width="0.3"/>
</g>
</svg>
