<svg width="20" height="20" viewBox="0 0 20 20" fill="none" xmlns="http://www.w3.org/2000/svg">
<g id="gift-box-with-ribbon-svgrepo-com 1" clip-path="url(#clip0_327_3836)">
<g id="Group">
<g id="Group_2">
<path id="Vector" d="M18.6404 6.5328H14.6524C15.0497 6.41683 15.3654 6.2708 15.6038 6.09255C16.3296 5.55567 16.7999 4.76752 16.9331 3.87415C17.0662 2.98078 16.8429 2.0917 16.306 1.36583C15.986 0.934177 15.5651 0.581982 15.0862 0.3479C14.6245 0.120262 14.1069 0 13.5894 0C12.8614 0 12.1656 0.229786 11.5793 0.665735C11.109 1.01364 10.6601 1.6944 10.2199 2.72737H9.65721C9.21697 1.69226 8.76815 1.01364 8.29782 0.665735C7.71155 0.229786 7.01575 0 6.28773 0C5.77232 0 5.25477 0.120262 4.7909 0.3479C4.312 0.584129 3.89108 0.936325 3.5711 1.36583C3.03422 2.0917 2.81087 2.98078 2.94402 3.87415C3.07717 4.76752 3.54963 5.55352 4.27334 6.09255C4.51172 6.26865 4.82741 6.41468 5.2247 6.5328H1.35702C0.822279 6.5328 0.390625 6.96445 0.390625 7.49919V12.6747H9.40812V6.88929C9.63791 6.88285 10.3015 6.88714 10.5893 6.89144V12.6769H19.6068V7.50134C19.6068 6.9666 19.173 6.5328 18.6404 6.5328ZM6.59485 5.38387C5.57692 5.25501 5.21399 5.05315 5.10661 4.97154C4.6814 4.65585 4.40437 4.19413 4.32705 3.67014C4.24974 3.14614 4.38074 2.62429 4.69643 2.19907C5.0744 1.69011 5.65638 1.39804 6.2899 1.39804C6.71726 1.39804 7.12529 1.53334 7.4689 1.7889C7.76526 2.00794 8.1432 2.67797 8.51902 3.62933C8.3816 3.87415 8.30427 4.15548 8.30427 4.45398C8.30427 4.84913 8.43958 5.21206 8.6672 5.49983C7.88337 5.49769 7.17039 5.45688 6.59485 5.38387ZM11.3323 5.49983C11.5578 5.21206 11.6931 4.84913 11.6931 4.45398C11.6931 4.10394 11.5879 3.77966 11.4075 3.51122C11.7661 2.62214 12.1269 1.99935 12.4103 1.7889C12.754 1.53334 13.162 1.39804 13.5893 1.39804C14.225 1.39804 14.807 1.69011 15.1828 2.19907C15.4985 2.62429 15.6295 3.14614 15.5522 3.67014C15.4749 4.19413 15.1978 4.65585 14.7726 4.97154C14.6631 5.05315 14.3002 5.25501 13.2844 5.38387C12.7389 5.45474 12.0667 5.49339 11.3323 5.49983Z" fill="white"/>
<path id="Vector_2" d="M10.5938 20.0013H18.6449C19.1795 20.0013 19.6112 19.5696 19.6112 19.0349V13.8594H10.5938V20.0013Z" fill="white"/>
<path id="Vector_3" d="M0.390625 19.0349C0.390625 19.5696 0.822279 20.0013 1.35702 20.0013H9.40812V13.8594H0.390625V19.0349Z" fill="white"/>
</g>
</g>
</g>
<defs>
<clipPath id="clip0_327_3836">
<rect width="20" height="20" fill="white"/>
</clipPath>
</defs>
</svg>
