<svg xmlns="http://www.w3.org/2000/svg" width="20" height="20" viewBox="0 0 20 20" fill="none">
  <g clip-path="url(#clip0_1043_40537)">
    <path d="M19.2475 8.2582L11.0897 8.25781C10.7295 8.25781 10.4375 8.54977 10.4375 8.91V11.5161C10.4375 11.8762 10.7295 12.1682 11.0897 12.1682H15.6837C15.1806 13.4737 14.2417 14.5671 13.0438 15.2618L15.0027 18.6527C18.145 16.8354 20.0027 13.6468 20.0027 10.0773C20.0027 9.5691 19.9652 9.20578 19.8903 8.79668C19.8334 8.48586 19.5635 8.2582 19.2475 8.2582Z" fill="white"/>
    <path d="M9.99957 16.0851C7.75137 16.0851 5.78871 14.8568 4.73461 13.0391L1.34375 14.9935C3.06934 17.9842 6.30191 19.9982 9.99957 19.9982C11.8135 19.9982 13.5251 19.5098 14.9996 18.6586V18.654L13.0407 15.263C12.1447 15.7827 11.1078 16.0851 9.99957 16.0851Z" fill="white"/>
    <path d="M15 18.6613V18.6566L13.0411 15.2656C12.1451 15.7853 11.1083 16.0878 10 16.0878V20.0008C11.8139 20.0008 13.5256 19.5124 15 18.6613Z" fill="white"/>
    <path d="M3.91305 10.0032C3.91305 8.895 4.21547 7.85824 4.73504 6.96227L1.34418 5.00781C0.488359 6.47762 0 8.18457 0 10.0032C0 11.8218 0.488359 13.5287 1.34418 14.9985L4.73504 13.0441C4.21547 12.1481 3.91305 11.1113 3.91305 10.0032Z" fill="white"/>
    <path d="M9.99957 3.91305C11.4656 3.91305 12.8123 4.43398 13.8641 5.30051C14.1236 5.51426 14.5007 5.49883 14.7384 5.26113L16.5849 3.41465C16.8546 3.14496 16.8354 2.70352 16.5473 2.45359C14.785 0.924727 12.492 0 9.99957 0C6.30191 0 3.06934 2.01395 1.34375 5.00465L4.73461 6.9591C5.78871 5.14141 7.75137 3.91305 9.99957 3.91305Z" fill="white"/>
    <path d="M13.8645 5.30051C14.124 5.51426 14.5012 5.49883 14.7389 5.26113L16.5854 3.41465C16.855 3.14496 16.8358 2.70352 16.5477 2.45359C14.7854 0.924688 12.4925 0 10 0V3.91305C11.466 3.91305 12.8127 4.43398 13.8645 5.30051Z" fill="white"/>
  </g>
  <defs>
    <clipPath id="clip0_1043_40537">
      <rect width="20" height="20" fill="white"/>
    </clipPath>
  </defs>
</svg>