<svg width="20" height="20" viewBox="0 0 20 20" fill="none" xmlns="http://www.w3.org/2000/svg">
<g id="svgexport-15 (1) 2" clip-path="url(#clip0_327_3802)">
<g id="Group">
<path id="Vector" d="M2.14844 6C0.963789 6 0 6.96379 0 8.14844V16.2219C0 17.4065 0.963789 18.3703 2.14844 18.3703H8.34477L9.5375 19.9035C9.59228 19.9739 9.66242 20.0309 9.74256 20.0701C9.82271 20.1093 9.91074 20.1296 9.99996 20.1296L10.3906 12.3402L10 6H2.14844Z" fill="white"/>
<path id="Vector_2" d="M17.8516 6H10V20.1296C10.0892 20.1296 10.1773 20.1093 10.2574 20.0701C10.3375 20.0309 10.4077 19.9739 10.4625 19.9035L11.6551 18.3703H17.8516C19.0362 18.3703 20 17.4065 20 16.2219V8.14844C20 6.96375 19.0362 6 17.8516 6Z" fill="white"/>
<path id="Vector_3" d="M3.79629 14.6954C3.30191 14.6954 3.27121 14.6901 3.22918 14.6829C3.09292 14.6595 2.9693 14.5888 2.88018 14.4831C2.79106 14.3774 2.74218 14.2436 2.74219 14.1054V9.65625C2.74219 9.33266 3.00453 9.07031 3.32812 9.07031C3.65172 9.07031 3.91406 9.33266 3.91406 9.65625V13.523C4.21648 13.5225 4.58789 13.5211 4.8841 13.5194C5.20613 13.5186 5.47152 13.7785 5.47328 14.1021C5.47508 14.4257 5.21422 14.6895 4.89062 14.6913C4.38207 14.6941 4.03508 14.6954 3.79629 14.6954ZM7.25898 14.695C6.93539 14.695 6.67305 14.4327 6.67305 14.1091V9.65625C6.67305 9.33266 6.93539 9.07031 7.25898 9.07031C7.58258 9.07031 7.84492 9.33266 7.84492 9.65625V14.1091C7.84492 14.4327 7.58258 14.695 7.25898 14.695Z" fill="#333333"/>
<path id="Vector_4" d="M16.6716 13.4981H15.3984V12.4639H16.5345C16.8581 12.4639 17.1205 12.2016 17.1205 11.878C17.1205 11.5544 16.8581 11.292 16.5345 11.292H15.3984V10.2578H16.6716C16.9952 10.2578 17.2576 9.99547 17.2576 9.67188C17.2576 9.34828 16.9952 9.08594 16.6716 9.08594H14.8125C14.4889 9.08594 14.2266 9.34828 14.2266 9.67188V14.0841C14.2266 14.4077 14.4889 14.67 14.8125 14.67H16.6716C16.9952 14.67 17.2576 14.4077 17.2576 14.0841C17.2576 13.7605 16.9952 13.4981 16.6716 13.4981Z" fill="#333333"/>
<path id="Vector_5" d="M9.44317 9.09686C9.13419 9.19303 8.96169 9.52151 9.0579 9.83049L10.0019 12.8624L10.3501 11.349L10.0019 9.21499C9.85364 9.08608 9.64446 9.03417 9.44317 9.09686Z" fill="#333333"/>
<path id="Vector_6" d="M12.6227 9.10265C12.3126 9.01031 11.9862 9.18675 11.8938 9.49687L11.0555 12.3102L10.1749 9.48179C10.1426 9.37818 10.0821 9.28565 10 9.21464V12.8621L10.4227 14.2198C10.5134 14.5044 10.7715 14.6948 11.0659 14.6948H11.0701C11.3663 14.6929 11.6242 14.4988 11.7129 14.208L13.0169 9.83148C13.1093 9.5214 12.9328 9.19507 12.6227 9.10265Z" fill="#333333"/>
<path id="Vector_7" d="M7.72811 3.57199C7.51784 3.81797 7.54679 4.18785 7.79276 4.39813C8.03878 4.6084 8.40862 4.57945 8.61889 4.33348C8.96557 3.92789 9.46862 3.69531 9.99901 3.69531L10.3896 3.07559L9.99901 2.52344C9.12546 2.52344 8.29776 2.90563 7.72811 3.57199ZM4.96233 3.76039C4.85608 4.06605 5.01772 4.39996 5.32343 4.50621C5.62909 4.6125 5.96303 4.45082 6.06925 4.14512C6.65007 2.47422 8.22929 1.35156 9.99901 1.35156L10.3896 0.770547L9.99901 0.179688C7.73089 0.179688 5.70679 1.61867 4.96233 3.76039Z" fill="white"/>
<g id="Group_2">
<path id="Vector_8" d="M15.0367 3.76035C14.2922 1.61867 12.2681 0.179688 10 0.179688V1.35156C11.7697 1.35156 13.3489 2.47422 13.9298 4.14516C14.0139 4.38715 14.2407 4.53887 14.4832 4.53887C14.547 4.53887 14.6119 4.52836 14.6756 4.50625C14.9813 4.39996 15.1429 4.06602 15.0367 3.76035ZM10 3.69531C10.5304 3.69531 11.0334 3.92793 11.3802 4.33348C11.4351 4.39793 11.5035 4.44967 11.5804 4.4851C11.6574 4.52053 11.7411 4.53881 11.8258 4.53867C11.9605 4.53867 12.0959 4.49246 12.2063 4.39809C12.4523 4.18781 12.4812 3.81793 12.2709 3.57195C11.7012 2.90562 10.8735 2.52344 10 2.52344V3.69531Z" fill="white"/>
</g>
</g>
</g>
<defs>
<clipPath id="clip0_327_3802">
<rect width="20" height="20" fill="white"/>
</clipPath>
</defs>
</svg>
