<svg width="22" height="22" viewBox="0 0 22 22" fill="none" xmlns="http://www.w3.org/2000/svg">
<g id="domino-leisure-svgrepo-com 1" clip-path="url(#clip0_327_3829)">
<g id="Group">
<g id="Group_2">
<path id="Vector" d="M21.8285 15.9648L17.4167 9.78739V1.83071C17.4167 1.32471 17.0069 0.914062 16.5 0.914062H5.50002C4.99312 0.914062 4.58337 1.32471 4.58337 1.83071V2.22856L0.444628 4.71181C0.225531 4.8429 0.0715311 5.06015 0.0192812 5.3104C-0.0329687 5.56155 0.0220312 5.8219 0.171433 6.03L4.58333 12.2074V20.164C4.58333 20.67 4.99308 21.0807 5.49998 21.0807H16.5C17.0069 21.0807 17.4166 20.67 17.4166 20.164V19.7662L21.5553 17.2838C21.7744 17.1518 21.9284 16.9346 21.9807 16.6843C22.033 16.4332 21.978 16.1729 21.8285 15.9648ZM4.58333 9.05405L2.23943 5.7724L4.58333 4.36625V9.05405ZM13.75 7.3307C14.256 7.3307 14.6667 7.74135 14.6667 8.24735C14.6667 8.75335 14.256 9.164 13.75 9.164C13.244 9.164 12.8334 8.75335 12.8334 8.24735C12.8334 7.74135 13.244 7.3307 13.75 7.3307ZM11 5.4974C11.506 5.4974 11.9167 5.90805 11.9167 6.41405C11.9167 6.92005 11.506 7.3307 11 7.3307C10.494 7.3307 10.0834 6.92005 10.0834 6.41405C10.0834 5.90805 10.494 5.4974 11 5.4974ZM8.25002 3.66406C8.75601 3.66406 9.16667 4.07471 9.16667 4.58071C9.16667 5.08671 8.75601 5.49736 8.25002 5.49736C7.74402 5.49736 7.33336 5.08671 7.33336 4.58071C7.33336 4.07471 7.74402 3.66406 8.25002 3.66406ZM8.25002 14.664C7.74402 14.664 7.33336 14.2534 7.33336 13.7474C7.33336 13.2414 7.74402 12.8307 8.25002 12.8307C8.75601 12.8307 9.16667 13.2414 9.16667 13.7474C9.16667 14.2534 8.75601 14.664 8.25002 14.664ZM13.75 18.3307C13.244 18.3307 12.8334 17.92 12.8334 17.414C12.8334 16.908 13.244 16.4974 13.75 16.4974C14.256 16.4974 14.6667 16.908 14.6667 17.414C14.6667 17.92 14.256 18.3307 13.75 18.3307ZM17.4167 17.6285V12.9416L19.7605 16.2224L17.4167 17.6285Z" fill="white"/>
</g>
</g>
</g>
<defs>
<clipPath id="clip0_327_3829">
<rect width="22" height="22" fill="white"/>
</clipPath>
</defs>
</svg>
