<svg width="20" height="20" viewBox="0 0 20 20" fill="none" xmlns="http://www.w3.org/2000/svg">
<g id="svgexport-15 (3) 1" clip-path="url(#clip0_327_3770)">
<g id="Group">
<path id="Vector" d="M16.8133 4.59914C16.868 4.59915 16.9218 4.58469 16.9692 4.55723L18.9139 3.43453C18.9845 3.39249 19.0357 3.32435 19.0564 3.24486C19.0771 3.16536 19.0657 3.0809 19.0246 3.00975C18.9836 2.93861 18.9161 2.88649 18.8369 2.86469C18.7577 2.84288 18.6731 2.85314 18.6014 2.89324L16.6567 4.01594C16.5971 4.05035 16.5505 4.10348 16.5242 4.16707C16.4979 4.23066 16.4933 4.30117 16.5111 4.36764C16.529 4.43411 16.5683 4.49283 16.6229 4.53469C16.6775 4.57655 16.7445 4.59921 16.8133 4.59914ZM15.0531 2.82352C15.1331 2.84493 15.2184 2.83368 15.2902 2.79224C15.362 2.75081 15.4143 2.68258 15.4358 2.60254L16.017 0.433518C16.0278 0.393824 16.0306 0.352391 16.0254 0.311595C16.0201 0.2708 16.0068 0.231444 15.9863 0.195785C15.9658 0.160127 15.9385 0.128867 15.9059 0.103799C15.8733 0.0787312 15.836 0.0603484 15.7963 0.0497051C15.7566 0.0390617 15.7151 0.0363671 15.6743 0.041776C15.6336 0.0471849 15.5943 0.0605907 15.5587 0.0812246C15.5231 0.101859 15.4919 0.129314 15.467 0.162018C15.442 0.194721 15.4238 0.232028 15.4133 0.271799L14.8321 2.44078C14.8215 2.48042 14.8188 2.52177 14.8241 2.56246C14.8295 2.60314 14.8428 2.64238 14.8633 2.67792C14.8838 2.71346 14.9112 2.74461 14.9437 2.76959C14.9763 2.79457 15.0134 2.8129 15.0531 2.82352ZM19.7519 6.9025L17.5828 6.32125C17.5432 6.31063 17.5019 6.30792 17.4612 6.31327C17.4205 6.31863 17.3813 6.33194 17.3457 6.35246C17.3102 6.37298 17.279 6.40029 17.254 6.43285C17.229 6.46541 17.2107 6.50257 17.2001 6.54221C17.1895 6.58185 17.1868 6.62319 17.1921 6.66388C17.1975 6.70457 17.2108 6.74381 17.2313 6.77935C17.2518 6.81489 17.2791 6.84604 17.3117 6.87103C17.3443 6.89601 17.3814 6.91434 17.4211 6.92496L19.5901 7.50621C19.6701 7.52762 19.7554 7.51637 19.8272 7.47494C19.8989 7.4335 19.9513 7.36527 19.9728 7.28524C19.9943 7.20518 19.983 7.11989 19.9416 7.04811C19.9002 6.97634 19.8319 6.92396 19.7519 6.9025ZM19.3768 13.7774C19.2664 13.6382 19.2098 13.4639 19.2172 13.2863L19.2368 12.8207C19.2635 12.1834 18.8531 11.6189 18.2387 11.4478L17.7904 11.3229C17.6187 11.2751 17.4701 11.1671 17.3716 11.0186L17.1153 10.6319C16.8995 10.3062 16.5671 10.0993 16.2046 10.0385L15.5591 8.92039C15.7473 8.60869 15.8906 8.27197 15.9846 7.9202C16.2518 6.92313 16.1147 5.88168 15.5986 4.98778C15.0825 4.09375 14.2491 3.4543 13.252 3.18715C12.9002 3.09257 12.5368 3.04802 12.1726 3.05481L10.8448 0.75508C10.4885 0.137893 9.69656 -0.0744118 9.07941 0.282034L8.51367 0.608674C8.08015 0.858948 7.84687 1.3243 7.86969 1.79297C7.84553 1.84021 7.83383 1.89284 7.8357 1.94586C7.87922 3.1934 7.64738 4.22645 7.12691 5.10406C6.6766 5.86336 6.00558 6.50727 5.07558 7.07231L1.755 8.98946C1.18156 9.32047 0.958123 10.0276 1.21508 10.6212L1.19515 10.6327C0.0905844 11.2704 -0.28922 12.6878 0.348514 13.7924C0.776483 14.5336 1.55555 14.9484 2.35558 14.9484C2.76033 14.9485 3.15793 14.8418 3.5082 14.639L3.5284 14.6273C3.77746 14.9628 4.16746 15.1487 4.56722 15.1487C4.79338 15.1487 5.01553 15.0891 5.21125 14.9758L5.22347 14.9687L7.06777 18.1631C7.24035 18.4621 7.51902 18.6759 7.8525 18.7653C7.96227 18.7948 8.07543 18.8098 8.1891 18.8099C8.41301 18.8099 8.63402 18.7511 8.83316 18.6362L9.11601 18.4729C9.415 18.3003 9.62883 18.0216 9.71816 17.6881C9.8075 17.3547 9.76168 17.0064 9.58906 16.7075L7.74476 13.513L8.5318 13.0586C9.13125 12.7304 9.76137 12.5226 10.4127 12.4357C10.3819 12.5616 10.369 12.6912 10.3745 12.8207L10.394 13.2863C10.4014 13.4638 10.3448 13.6382 10.2345 13.7775L9.94473 14.143C9.54894 14.6424 9.54894 15.3401 9.94473 15.8395L10.2345 16.2051C10.3448 16.3444 10.4015 16.5187 10.394 16.6963L10.3745 17.1619C10.3477 17.7991 10.7582 18.3636 11.3725 18.5347L11.8209 18.6597C11.9926 18.7074 12.1412 18.8155 12.2396 18.964L12.4959 19.3507C12.8489 19.8832 13.5134 20.0991 14.112 19.8757L14.5465 19.7134C14.7136 19.651 14.8976 19.651 15.0647 19.7134L15.4993 19.8756C15.6531 19.9333 15.816 19.9629 15.9803 19.963C16.4271 19.963 16.8556 19.7427 17.1153 19.3507L17.3716 18.964C17.4701 18.8155 17.6187 18.7074 17.7904 18.6597L18.2386 18.5348C18.8531 18.3637 19.2635 17.7991 19.2368 17.1619L19.2172 16.6963C19.2098 16.5187 19.2664 16.3444 19.3768 16.2051L19.6665 15.8395H19.6665C20.0623 15.3401 20.0623 14.6424 19.6665 14.143L19.3768 13.7774ZM9.11445 17.5264C9.09199 17.6111 9.05295 17.6906 8.99957 17.7601C8.9462 17.8297 8.87956 17.888 8.80351 17.9316L8.52066 18.0949C8.44486 18.139 8.36106 18.1675 8.27414 18.179C8.18721 18.1904 8.09888 18.1845 8.01426 18.1616C7.9295 18.1391 7.85005 18.1001 7.78049 18.0467C7.71093 17.9933 7.65265 17.9267 7.60902 17.8506L5.76472 14.6562L7.20347 13.8255L9.04781 17.02C9.09185 17.0958 9.12041 17.1796 9.13185 17.2665C9.14329 17.3534 9.13737 17.4418 9.11445 17.5264ZM13.0902 3.79082C13.9261 4.01481 14.6247 4.55086 15.0573 5.30024C15.49 6.04961 15.6049 6.92258 15.3809 7.75844C15.3327 7.93829 15.2691 8.11367 15.1909 8.28266L12.5412 3.69336C12.7266 3.71013 12.9103 3.74276 13.0902 3.7909V3.79082ZM8.82621 1.14992L9.39195 0.823362C9.493 0.764832 9.60771 0.734028 9.72449 0.734065C9.95535 0.734065 10.1801 0.853752 10.3036 1.06762L15.5185 10.1002C15.5121 10.1024 15.5056 10.1045 15.4993 10.1069L15.0647 10.2691C14.8976 10.3316 14.7136 10.3316 14.5465 10.2691L14.112 10.1069C13.8136 9.99543 13.4987 9.99324 13.2143 10.0851L11.0073 6.26239L8.58191 2.06153C8.39793 1.74285 8.50754 1.33395 8.82621 1.14992ZM7.66453 5.42289C8.0818 4.71938 8.33375 3.9334 8.42594 3.04133L12.6797 10.4091C12.6108 10.4767 12.5492 10.5514 12.4959 10.6319L12.2396 11.0186C12.1412 11.1671 11.9925 11.2752 11.8209 11.323L11.3727 11.4478C11.1564 11.5077 10.9582 11.6199 10.7956 11.7745C9.99804 11.8159 9.23199 12.0154 8.50047 12.3723L5.65555 7.44477C6.54441 6.86313 7.20383 6.19977 7.66453 5.42289ZM0.889764 13.4799C0.424373 12.6738 0.701561 11.6393 1.50765 11.1739L1.51988 11.1669L3.20793 14.0907L3.1957 14.0977C2.38961 14.5632 1.35519 14.2859 0.889764 13.4799ZM3.98711 14.1902L1.8232 10.4423C1.63922 10.1237 1.74879 9.71469 2.06746 9.53071L5.12047 7.76805L7.95168 12.6719L4.89871 14.4345C4.58004 14.6185 4.17109 14.5089 3.98711 14.1902ZM19.1767 15.4513L18.887 15.817C18.6835 16.0737 18.5791 16.3951 18.5928 16.7224L18.6123 17.1881C18.6199 17.3552 18.5704 17.5199 18.472 17.6552C18.3737 17.7905 18.2322 17.8884 18.0709 17.9327L17.6227 18.0575C17.3063 18.1457 17.0322 18.3449 16.8507 18.6187L16.5944 19.0054C16.403 19.2943 16.0425 19.4113 15.7179 19.2901L15.2833 19.1279C14.9752 19.0129 14.636 19.0129 14.3279 19.1279L13.8934 19.2901C13.5687 19.4115 13.2083 19.2943 13.0169 19.0054L12.7605 18.6187C12.5791 18.3449 12.305 18.1457 11.9886 18.0576L11.5403 17.9327C11.379 17.8883 11.2376 17.7905 11.1392 17.6552C11.0408 17.5199 10.9914 17.3552 10.9989 17.188L11.0185 16.7224C11.0322 16.3951 10.9278 16.0737 10.7243 15.817L10.4346 15.4513C10.3303 15.3207 10.2736 15.1584 10.2736 14.9913C10.2736 14.8241 10.3303 14.6619 10.4346 14.5313L10.7243 14.1656C10.9278 13.9088 11.0322 13.5875 11.0185 13.2602L10.9989 12.7945C10.9914 12.6274 11.0408 12.4627 11.1392 12.3274C11.2376 12.1921 11.379 12.0943 11.5403 12.0499L11.9886 11.925C12.305 11.8369 12.579 11.6377 12.7605 11.3639L13.0169 10.9771C13.2083 10.6883 13.5686 10.5712 13.8934 10.6924L14.3279 10.8547C14.636 10.9696 14.9752 10.9696 15.2833 10.8547L15.7179 10.6924C16.0425 10.5713 16.403 10.6883 16.5944 10.9771L16.8507 11.3639C17.0322 11.6376 17.3062 11.8369 17.6227 11.925L18.071 12.0499C18.2323 12.0942 18.3737 12.1921 18.4721 12.3274C18.5704 12.4627 18.6199 12.6274 18.6123 12.7945L18.5928 13.2601C18.5791 13.5874 18.6835 13.9088 18.8869 14.1656L19.1767 14.5312C19.2809 14.6619 19.3377 14.8241 19.3377 14.9913C19.3377 15.1584 19.2809 15.3206 19.1767 15.4513Z" fill="white"/>
<path id="Vector_2" d="M13.9222 14.1097C14.1237 13.9082 14.2347 13.6403 14.2347 13.3554C14.2347 13.0704 14.1237 12.8025 13.9222 12.601C13.5062 12.1851 12.8295 12.1851 12.4135 12.601C11.9976 13.0169 11.9976 13.6937 12.4135 14.1097C12.615 14.3112 12.8829 14.4222 13.1678 14.4222C13.4528 14.4222 13.7207 14.3112 13.9222 14.1097ZM12.8555 13.0429C12.8965 13.0019 12.9452 12.9693 12.9988 12.9472C13.0524 12.925 13.1099 12.9137 13.1679 12.9138C13.281 12.9138 13.3941 12.9568 13.4803 13.0429C13.5637 13.1264 13.6097 13.2374 13.6097 13.3553C13.6097 13.4733 13.5637 13.5843 13.4803 13.6677V13.6677C13.3968 13.7512 13.2859 13.7972 13.1679 13.7972C13.0499 13.7972 12.9389 13.7512 12.8555 13.6677C12.6832 13.4955 12.6832 13.2152 12.8555 13.0429ZM15.6826 15.87C15.4811 16.0715 15.3701 16.3395 15.3701 16.6244C15.3701 16.9094 15.4811 17.1773 15.6826 17.3788C15.8906 17.5867 16.1638 17.6907 16.4369 17.6907C16.7101 17.6907 16.9833 17.5867 17.1913 17.3788C17.6073 16.9628 17.6073 16.286 17.1913 15.87C16.7753 15.4541 16.0985 15.4541 15.6826 15.87ZM16.7494 16.9368C16.5771 17.1091 16.2969 17.1091 16.1246 16.9368C16.0411 16.8534 15.9951 16.7424 15.9951 16.6244C15.9951 16.5065 16.0411 16.3954 16.1246 16.312C16.2107 16.2259 16.3238 16.1828 16.4369 16.1828C16.5501 16.1828 16.6632 16.2259 16.7494 16.312C16.9216 16.4843 16.9216 16.7646 16.7494 16.9368ZM16.5891 13.2032C16.5305 13.1446 16.451 13.1117 16.3682 13.1117C16.2853 13.1117 16.2058 13.1446 16.1472 13.2032L13.0157 16.3346C12.9577 16.3933 12.9253 16.4726 12.9255 16.5552C12.9258 16.6377 12.9587 16.7168 13.0171 16.7752C13.0754 16.8336 13.1545 16.8665 13.2371 16.8668C13.3196 16.867 13.3989 16.8346 13.4576 16.7766L16.5891 13.6451C16.6181 13.6161 16.6411 13.5817 16.6568 13.5437C16.6725 13.5058 16.6806 13.4652 16.6806 13.4242C16.6806 13.3831 16.6725 13.3425 16.6568 13.3046C16.6411 13.2666 16.6182 13.2322 16.5891 13.2032Z" fill="white"/>
</g>
</g>
<defs>
<clipPath id="clip0_327_3770">
<rect width="20" height="20" fill="white"/>
</clipPath>
</defs>
</svg>
