<svg width="20" height="20" viewBox="0 0 20 20" fill="none" xmlns="http://www.w3.org/2000/svg">
<g id="vuesax/linear/scan-barcode">
<g id="scan-barcode">
<path id="Vector" d="M1.66406 7.4974V5.41406C1.66406 3.33906 3.33906 1.66406 5.41406 1.66406H7.4974" stroke="white" stroke-opacity="0.8" stroke-width="1.2" stroke-linecap="round" stroke-linejoin="round"/>
<path id="Vector_2" d="M12.5 1.66406H14.5833C16.6583 1.66406 18.3333 3.33906 18.3333 5.41406V7.4974" stroke="white" stroke-opacity="0.8" stroke-width="1.2" stroke-linecap="round" stroke-linejoin="round"/>
<path id="Vector_3" d="M18.3359 13.3359V14.5859C18.3359 16.6609 16.6609 18.3359 14.5859 18.3359H13.3359" stroke="white" stroke-opacity="0.8" stroke-width="1.2" stroke-linecap="round" stroke-linejoin="round"/>
<path id="Vector_4" d="M7.4974 18.3333H5.41406C3.33906 18.3333 1.66406 16.6583 1.66406 14.5833V12.5" stroke="white" stroke-opacity="0.8" stroke-width="1.2" stroke-linecap="round" stroke-linejoin="round"/>
<path id="Vector_5" d="M8.7526 5.83594V7.5026C8.7526 8.33594 8.33594 8.7526 7.5026 8.7526H5.83594C5.0026 8.7526 4.58594 8.33594 4.58594 7.5026V5.83594C4.58594 5.0026 5.0026 4.58594 5.83594 4.58594H7.5026C8.33594 4.58594 8.7526 5.0026 8.7526 5.83594Z" stroke="white" stroke-opacity="0.8" stroke-width="1.5" stroke-linecap="round" stroke-linejoin="round"/>
<path id="Vector_6" d="M15.4167 5.83594V7.5026C15.4167 8.33594 15 8.7526 14.1667 8.7526H12.5C11.6667 8.7526 11.25 8.33594 11.25 7.5026V5.83594C11.25 5.0026 11.6667 4.58594 12.5 4.58594H14.1667C15 4.58594 15.4167 5.0026 15.4167 5.83594Z" stroke="white" stroke-opacity="0.8" stroke-width="1.2" stroke-linecap="round" stroke-linejoin="round"/>
<path id="Vector_7" d="M8.7526 12.5V14.1667C8.7526 15 8.33594 15.4167 7.5026 15.4167H5.83594C5.0026 15.4167 4.58594 15 4.58594 14.1667V12.5C4.58594 11.6667 5.0026 11.25 5.83594 11.25H7.5026C8.33594 11.25 8.7526 11.6667 8.7526 12.5Z" stroke="white" stroke-opacity="0.8" stroke-width="1.2" stroke-linecap="round" stroke-linejoin="round"/>
<path id="Vector_8" d="M15.4167 12.5V14.1667C15.4167 15 15 15.4167 14.1667 15.4167H12.5C11.6667 15.4167 11.25 15 11.25 14.1667V12.5C11.25 11.6667 11.6667 11.25 12.5 11.25H14.1667C15 11.25 15.4167 11.6667 15.4167 12.5Z" stroke="white" stroke-opacity="0.8" stroke-width="1.2" stroke-linecap="round" stroke-linejoin="round"/>
</g>
</g>
</svg>
