<svg width="270" height="84" viewBox="0 0 270 84" fill="none" xmlns="http://www.w3.org/2000/svg">
<g clip-path="url(#clip0_264_421)">
<mask id="path-1-inside-1_264_421" fill="white">
<path d="M10 43C10 26.4315 23.4315 13 40 13H210C226.569 13 240 26.4315 240 43C240 59.5685 226.569 73 210 73H40C23.4315 73 10 59.5685 10 43Z"/>
</mask>
<path d="M10 43C10 26.4315 23.4315 13 40 13H210C226.569 13 240 26.4315 240 43C240 59.5685 226.569 73 210 73H40C23.4315 73 10 59.5685 10 43Z" fill="#101010"/>
<g filter="url(#filter0_f_264_421)">
<ellipse cx="104.5" cy="87" rx="30.5" ry="39" fill="#044BFF"/>
</g>
<g filter="url(#filter1_f_264_421)">
<ellipse cx="165.5" cy="87" rx="30.5" ry="39" fill="#C52EE1"/>
</g>
<g filter="url(#filter2_f_264_421)">
<path d="M45.8361 15.4432L44.3148 18.8983L47.5572 20.8319L44.1021 19.3105L42.1685 22.5529L43.6899 19.0978L40.4475 17.1643L43.9025 18.6856L45.8361 15.4432Z" fill="white"/>
</g>
<g filter="url(#filter3_f_264_421)">
<path d="M24.2268 24.8338L22.7054 28.2889L25.9478 30.2225L22.4927 28.7011L20.5592 31.9436L22.0805 28.4885L18.8381 26.5549L22.2932 28.0762L24.2268 24.8338Z" fill="white"/>
</g>
<g filter="url(#filter4_f_264_421)">
<path d="M20.2189 43.8338L18.6976 47.2889L21.94 49.2225L18.4849 47.7011L16.5513 50.9436L18.0727 47.4885L14.8303 45.5549L18.2854 47.0762L20.2189 43.8338Z" fill="white"/>
</g>
<g filter="url(#filter5_f_264_421)">
<path d="M52.7549 18.619L51.9303 20.4917L53.6878 21.5397L51.8151 20.7151L50.767 22.4726L51.5916 20.5999L49.8342 19.5518L51.7069 20.3764L52.7549 18.619Z" fill="white"/>
</g>
<g filter="url(#filter6_f_264_421)">
<path d="M39.9112 20.994L39.0866 22.8667L40.8441 23.9147L38.9713 23.0901L37.9233 24.8476L38.7479 22.9749L36.9904 21.9268L38.8631 22.7514L39.9112 20.994Z" fill="white"/>
</g>
<g filter="url(#filter7_f_264_421)">
<path d="M25.4634 36.2111L24.3829 37.2625L25.2939 38.4638L24.2425 37.3833L23.0412 38.2942L24.1217 37.2428L23.2108 36.0416L24.2622 37.1221L25.4634 36.2111Z" fill="white"/>
</g>
<g filter="url(#filter8_f_264_421)">
<path d="M21.4634 55.2111L20.3829 56.2625L21.2939 57.4638L20.2425 56.3833L19.0412 57.2942L20.1217 56.2428L19.2108 55.0416L20.2622 56.1221L21.4634 55.2111Z" fill="white"/>
</g>
<g filter="url(#filter9_f_264_421)">
<path d="M31.6623 23.522L31.3222 26.016L33.7557 26.6594L31.2617 26.3193L30.6183 28.7528L30.9584 26.2588L28.5249 25.6154L31.0189 25.9555L31.6623 23.522Z" fill="white"/>
</g>
<g filter="url(#filter10_f_264_421)">
<path d="M16.6623 38.522L16.3222 41.016L18.7557 41.6594L16.2617 41.3193L15.6183 43.7528L15.9584 41.2588L13.5249 40.6154L16.0189 40.9555L16.6623 38.522Z" fill="white"/>
</g>
<g filter="url(#filter11_f_264_421)">
<path d="M29.6758 17.3813L29.4274 19.2028L31.2048 19.6727L29.3832 19.4243L28.9133 21.2017L29.1617 19.3801L27.3844 18.9102L29.2059 19.1586L29.6758 17.3813Z" fill="white"/>
</g>
<g filter="url(#filter12_f_264_421)">
<path d="M34.6758 31.3813L34.4274 33.2028L36.2048 33.6727L34.3832 33.4243L33.9133 35.2017L34.1617 33.3801L32.3844 32.9102L34.2059 33.1586L34.6758 31.3813Z" fill="white"/>
</g>
<g filter="url(#filter13_f_264_421)">
<path d="M27.6758 45.3813L27.4274 47.2028L29.2048 47.6727L27.3832 47.4243L26.9133 49.2017L27.1617 47.3801L25.3844 46.9102L27.2059 47.1586L27.6758 45.3813Z" fill="white"/>
</g>
<g filter="url(#filter14_f_264_421)">
<path d="M45.6758 24.3813L45.4274 26.2028L47.2048 26.6727L45.3832 26.4243L44.9133 28.2017L45.1617 26.3801L43.3844 25.9102L45.2059 26.1586L45.6758 24.3813Z" fill="white"/>
</g>
<path d="M78.6085 50L75.6485 44.9H72.9285V50H70.6285V36H76.2285C78.7285 36 80.7285 38 80.7285 40.5C80.7285 42.3 79.5885 43.9 77.9485 44.56L81.1285 50H78.6085ZM72.9285 38.16V42.84H76.2285C77.4485 42.84 78.4285 41.8 78.4285 40.5C78.4285 39.18 77.4485 38.16 76.2285 38.16H72.9285ZM83.9268 45.92C84.2668 47.48 85.5268 48.28 87.1268 48.28C88.3268 48.28 89.2268 47.74 89.7068 47.04L91.4868 48.08C90.5668 49.44 89.0668 50.26 87.1068 50.26C83.8068 50.26 81.6668 48 81.6668 45C81.6668 42.04 83.8068 39.74 86.9468 39.74C89.9268 39.74 91.9668 42.14 91.9668 45.02C91.9668 45.32 91.9268 45.64 91.8868 45.92H83.9268ZM83.9068 44.16H89.7868C89.4868 42.44 88.2268 41.7 86.9268 41.7C85.3068 41.7 84.2068 42.66 83.9068 44.16ZM101.769 40H103.889V49.54C103.889 52.76 101.369 54.26 98.7488 54.26C96.5488 54.26 94.8488 53.44 94.0088 51.84L95.8688 50.76C96.3088 51.62 97.0488 52.3 98.7888 52.3C100.649 52.3 101.769 51.28 101.769 49.54V48.32C101.009 49.4 99.8288 50.06 98.2888 50.06C95.4688 50.06 93.2488 47.76 93.2488 44.9C93.2488 42.04 95.4688 39.74 98.2888 39.74C99.8288 39.74 101.009 40.4 101.769 41.48V40ZM98.5888 48.04C100.409 48.04 101.769 46.7 101.769 44.9C101.769 43.1 100.409 41.76 98.5888 41.76C96.7688 41.76 95.4088 43.1 95.4088 44.9C95.4088 46.7 96.7688 48.04 98.5888 48.04ZM107.486 38.5C106.726 38.5 106.106 37.86 106.106 37.12C106.106 36.36 106.726 35.74 107.486 35.74C108.246 35.74 108.866 36.36 108.866 37.12C108.866 37.86 108.246 38.5 107.486 38.5ZM106.406 50V40H108.566V50H106.406ZM112.956 42.76C112.956 44.58 118.336 43.48 118.336 47.18C118.336 49.18 116.596 50.26 114.436 50.26C112.436 50.26 110.996 49.36 110.356 47.92L112.216 46.84C112.536 47.74 113.336 48.28 114.436 48.28C115.396 48.28 116.136 47.96 116.136 47.16C116.136 45.38 110.756 46.38 110.756 42.8C110.756 40.92 112.376 39.74 114.416 39.74C116.056 39.74 117.416 40.5 118.116 41.82L116.296 42.84C115.936 42.06 115.236 41.7 114.416 41.7C113.636 41.7 112.956 42.04 112.956 42.76ZM125.424 42.08H122.944V46.88C122.944 48.16 123.784 48.14 125.424 48.06V50C122.104 50.4 120.784 49.48 120.784 46.88V42.08H118.944V40H120.784V37.84L122.944 37.2V40H125.424V42.08ZM129.641 41.68C130.241 40.32 131.461 39.82 132.721 39.82V42.16C131.301 42.06 129.641 42.72 129.641 44.96V50H127.481V40H129.641V41.68ZM141.768 40H143.928V50H141.768V48.56C141.008 49.62 139.828 50.26 138.268 50.26C135.548 50.26 133.288 47.96 133.288 45C133.288 42.02 135.548 39.74 138.268 39.74C139.828 39.74 141.008 40.38 141.768 41.42V40ZM138.608 48.2C140.408 48.2 141.768 46.86 141.768 45C141.768 43.14 140.408 41.8 138.608 41.8C136.808 41.8 135.448 43.14 135.448 45C135.448 46.86 136.808 48.2 138.608 48.2ZM152.026 42.08H149.546V46.88C149.546 48.16 150.386 48.14 152.026 48.06V50C148.706 50.4 147.386 49.48 147.386 46.88V42.08H145.546V40H147.386V37.84L149.546 37.2V40H152.026V42.08ZM155.065 38.5C154.305 38.5 153.685 37.86 153.685 37.12C153.685 36.36 154.305 35.74 155.065 35.74C155.825 35.74 156.445 36.36 156.445 37.12C156.445 37.86 155.825 38.5 155.065 38.5ZM153.985 50V40H156.145V50H153.985ZM163.373 50.26C160.453 50.26 158.093 47.96 158.093 45C158.093 42.02 160.453 39.74 163.373 39.74C166.313 39.74 168.653 42.02 168.653 45C168.653 47.96 166.313 50.26 163.373 50.26ZM163.373 48.16C165.133 48.16 166.493 46.82 166.493 45C166.493 43.18 165.133 41.84 163.373 41.84C161.613 41.84 160.253 43.18 160.253 45C160.253 46.82 161.613 48.16 163.373 48.16ZM175.866 39.74C178.106 39.74 179.706 41.26 179.706 43.86V50H177.546V44.08C177.546 42.56 176.666 41.76 175.306 41.76C173.886 41.76 172.766 42.6 172.766 44.64V50H170.606V40H172.766V41.28C173.426 40.24 174.506 39.74 175.866 39.74Z" fill="white"/>
</g>
<path d="M8.5 42.25C8.5 25.2672 22.2672 11.5 39.25 11.5H210.75C227.733 11.5 241.5 25.2672 241.5 42.25L238.5 43C238.5 27.2599 225.74 14.5 210 14.5H40C24.2599 14.5 11.5 27.2599 11.5 43L8.5 42.25ZM240 73H10H240ZM39.25 73C22.2672 73 8.5 59.2328 8.5 42.25C8.5 25.2672 22.2672 11.5 39.25 11.5L40 14.5C24.2599 14.5 11.5 27.2599 11.5 43C11.5 59.5685 24.2599 73 40 73H39.25ZM210.75 11.5C227.733 11.5 241.5 25.2672 241.5 42.25C241.5 59.2328 227.733 73 210.75 73H210C225.74 73 238.5 59.5685 238.5 43C238.5 27.2599 225.74 14.5 210 14.5L210.75 11.5Z" fill="#9FB1BE" mask="url(#path-1-inside-1_264_421)"/>
<g filter="url(#filter15_f_264_421)">
<circle cx="232" cy="24" r="5" fill="white"/>
</g>
<defs>
<filter id="filter0_f_264_421" x="0" y="-26" width="209" height="226" filterUnits="userSpaceOnUse" color-interpolation-filters="sRGB">
<feFlood flood-opacity="0" result="BackgroundImageFix"/>
<feBlend mode="normal" in="SourceGraphic" in2="BackgroundImageFix" result="shape"/>
<feGaussianBlur stdDeviation="37" result="effect1_foregroundBlur_264_421"/>
</filter>
<filter id="filter1_f_264_421" x="61" y="-26" width="209" height="226" filterUnits="userSpaceOnUse" color-interpolation-filters="sRGB">
<feFlood flood-opacity="0" result="BackgroundImageFix"/>
<feBlend mode="normal" in="SourceGraphic" in2="BackgroundImageFix" result="shape"/>
<feGaussianBlur stdDeviation="37" result="effect1_foregroundBlur_264_421"/>
</filter>
<filter id="filter2_f_264_421" x="39.6453" y="14.6453" width="8.70938" height="8.70938" filterUnits="userSpaceOnUse" color-interpolation-filters="sRGB">
<feFlood flood-opacity="0" result="BackgroundImageFix"/>
<feBlend mode="normal" in="SourceGraphic" in2="BackgroundImageFix" result="shape"/>
<feGaussianBlur stdDeviation="0.4" result="effect1_foregroundBlur_264_421"/>
</filter>
<filter id="filter3_f_264_421" x="18.0359" y="24.0359" width="8.70938" height="8.70938" filterUnits="userSpaceOnUse" color-interpolation-filters="sRGB">
<feFlood flood-opacity="0" result="BackgroundImageFix"/>
<feBlend mode="normal" in="SourceGraphic" in2="BackgroundImageFix" result="shape"/>
<feGaussianBlur stdDeviation="0.4" result="effect1_foregroundBlur_264_421"/>
</filter>
<filter id="filter4_f_264_421" x="14.0281" y="43.0359" width="8.70938" height="8.70938" filterUnits="userSpaceOnUse" color-interpolation-filters="sRGB">
<feFlood flood-opacity="0" result="BackgroundImageFix"/>
<feBlend mode="normal" in="SourceGraphic" in2="BackgroundImageFix" result="shape"/>
<feGaussianBlur stdDeviation="0.4" result="effect1_foregroundBlur_264_421"/>
</filter>
<filter id="filter5_f_264_421" x="49.0359" y="17.8172" width="5.45156" height="5.45156" filterUnits="userSpaceOnUse" color-interpolation-filters="sRGB">
<feFlood flood-opacity="0" result="BackgroundImageFix"/>
<feBlend mode="normal" in="SourceGraphic" in2="BackgroundImageFix" result="shape"/>
<feGaussianBlur stdDeviation="0.4" result="effect1_foregroundBlur_264_421"/>
</filter>
<filter id="filter6_f_264_421" x="36.1922" y="20.1922" width="5.45156" height="5.45156" filterUnits="userSpaceOnUse" color-interpolation-filters="sRGB">
<feFlood flood-opacity="0" result="BackgroundImageFix"/>
<feBlend mode="normal" in="SourceGraphic" in2="BackgroundImageFix" result="shape"/>
<feGaussianBlur stdDeviation="0.4" result="effect1_foregroundBlur_264_421"/>
</filter>
<filter id="filter7_f_264_421" x="22.2391" y="35.2391" width="4.02188" height="4.02188" filterUnits="userSpaceOnUse" color-interpolation-filters="sRGB">
<feFlood flood-opacity="0" result="BackgroundImageFix"/>
<feBlend mode="normal" in="SourceGraphic" in2="BackgroundImageFix" result="shape"/>
<feGaussianBlur stdDeviation="0.4" result="effect1_foregroundBlur_264_421"/>
</filter>
<filter id="filter8_f_264_421" x="18.2391" y="54.2391" width="4.02188" height="4.02188" filterUnits="userSpaceOnUse" color-interpolation-filters="sRGB">
<feFlood flood-opacity="0" result="BackgroundImageFix"/>
<feBlend mode="normal" in="SourceGraphic" in2="BackgroundImageFix" result="shape"/>
<feGaussianBlur stdDeviation="0.4" result="effect1_foregroundBlur_264_421"/>
</filter>
<filter id="filter9_f_264_421" x="27.7234" y="22.7234" width="6.83438" height="6.82656" filterUnits="userSpaceOnUse" color-interpolation-filters="sRGB">
<feFlood flood-opacity="0" result="BackgroundImageFix"/>
<feBlend mode="normal" in="SourceGraphic" in2="BackgroundImageFix" result="shape"/>
<feGaussianBlur stdDeviation="0.4" result="effect1_foregroundBlur_264_421"/>
</filter>
<filter id="filter10_f_264_421" x="12.7234" y="37.7234" width="6.83438" height="6.82656" filterUnits="userSpaceOnUse" color-interpolation-filters="sRGB">
<feFlood flood-opacity="0" result="BackgroundImageFix"/>
<feBlend mode="normal" in="SourceGraphic" in2="BackgroundImageFix" result="shape"/>
<feGaussianBlur stdDeviation="0.4" result="effect1_foregroundBlur_264_421"/>
</filter>
<filter id="filter11_f_264_421" x="26.5828" y="16.5828" width="5.42031" height="5.42031" filterUnits="userSpaceOnUse" color-interpolation-filters="sRGB">
<feFlood flood-opacity="0" result="BackgroundImageFix"/>
<feBlend mode="normal" in="SourceGraphic" in2="BackgroundImageFix" result="shape"/>
<feGaussianBlur stdDeviation="0.4" result="effect1_foregroundBlur_264_421"/>
</filter>
<filter id="filter12_f_264_421" x="31.5828" y="30.5828" width="5.42031" height="5.42031" filterUnits="userSpaceOnUse" color-interpolation-filters="sRGB">
<feFlood flood-opacity="0" result="BackgroundImageFix"/>
<feBlend mode="normal" in="SourceGraphic" in2="BackgroundImageFix" result="shape"/>
<feGaussianBlur stdDeviation="0.4" result="effect1_foregroundBlur_264_421"/>
</filter>
<filter id="filter13_f_264_421" x="24.5828" y="44.5828" width="5.42031" height="5.42031" filterUnits="userSpaceOnUse" color-interpolation-filters="sRGB">
<feFlood flood-opacity="0" result="BackgroundImageFix"/>
<feBlend mode="normal" in="SourceGraphic" in2="BackgroundImageFix" result="shape"/>
<feGaussianBlur stdDeviation="0.4" result="effect1_foregroundBlur_264_421"/>
</filter>
<filter id="filter14_f_264_421" x="42.5828" y="23.5828" width="5.42031" height="5.42031" filterUnits="userSpaceOnUse" color-interpolation-filters="sRGB">
<feFlood flood-opacity="0" result="BackgroundImageFix"/>
<feBlend mode="normal" in="SourceGraphic" in2="BackgroundImageFix" result="shape"/>
<feGaussianBlur stdDeviation="0.4" result="effect1_foregroundBlur_264_421"/>
</filter>
<filter id="filter15_f_264_421" x="222" y="14" width="20" height="20" filterUnits="userSpaceOnUse" color-interpolation-filters="sRGB">
<feFlood flood-opacity="0" result="BackgroundImageFix"/>
<feBlend mode="normal" in="SourceGraphic" in2="BackgroundImageFix" result="shape"/>
<feGaussianBlur stdDeviation="2.5" result="effect1_foregroundBlur_264_421"/>
</filter>
<clipPath id="clip0_264_421">
<path d="M10 43C10 26.4315 23.4315 13 40 13H210C226.569 13 240 26.4315 240 43C240 59.5685 226.569 73 210 73H40C23.4315 73 10 59.5685 10 43Z" fill="white"/>
</clipPath>
</defs>
</svg>
