<svg xmlns="http://www.w3.org/2000/svg" width="20" height="20" viewBox="0 0 20 20" fill="none">
  <path d="M18.0859 10.9214C18.0696 10.8917 18.0799 10.9544 18.0859 10.9214C18.1826 10.3946 18.2334 9.85546 18.2334 9.31644C18.2334 8.12125 17.9995 6.96191 17.5372 5.87024C17.0911 4.81593 16.453 3.86908 15.6395 3.05611C14.8272 2.24302 13.8797 1.60504 12.8258 1.15906C11.7346 0.697298 10.5751 0.46328 9.38005 0.46328C8.81677 0.46328 8.25259 0.51616 7.70352 0.621656C7.70238 0.62189 7.69942 0.622241 7.69942 0.622241C6.94607 0.221675 6.09897 0.0078125 5.24138 0.0078125C3.84135 0.0078125 2.52507 0.553015 1.53518 1.54323C0.545407 2.53314 0 3.84951 0 5.24943C0 6.14056 0.229331 7.01657 0.659399 7.79052C0.572184 8.2921 0.526072 8.80467 0.526072 9.31644C0.526072 10.5119 0.76009 11.6711 1.22244 12.7628C1.66783 13.8177 2.30617 14.7638 3.11902 15.5769C3.93257 16.3899 4.87872 17.0289 5.93374 17.4737C7.02502 17.9364 8.18486 18.1705 9.37994 18.1705C9.90018 18.1705 10.4215 18.1231 10.9306 18.0328C11.717 18.478 12.6054 18.712 13.5091 18.7122C14.9088 18.7122 16.2245 18.168 17.2145 17.1773C18.2046 16.188 18.7496 14.8714 18.7496 13.4715C18.7496 12.5773 18.5191 11.6985 18.0859 10.9214ZM9.4153 14.7386C6.26997 14.7386 4.8627 13.1924 4.8627 12.0333C4.8627 11.439 5.30155 11.0223 5.90637 11.0223C7.25253 11.0223 6.90394 12.955 9.4153 12.955C10.701 12.955 11.4109 12.2569 11.4109 11.5426C11.4109 11.1129 11.1989 10.6366 10.3523 10.428L7.55475 9.72958C5.30158 9.1646 4.89281 7.94649 4.89281 6.80154C4.89281 4.42433 7.1311 3.53182 9.23299 3.53182C11.1693 3.53182 13.4518 4.60192 13.4518 6.02806C13.4518 6.63918 12.9226 6.99448 12.318 6.99448C11.1693 6.99448 11.3805 5.40449 9.06658 5.40449C7.91847 5.40449 7.28239 5.9245 7.28239 6.66845C7.28239 7.41116 8.18931 7.6484 8.97664 7.8277L11.0474 8.28741C13.3157 8.79277 13.8907 10.117 13.8907 11.3644C13.891 13.2962 12.4081 14.7386 9.4153 14.7386Z" fill="white"/>
</svg>