<svg xmlns="http://www.w3.org/2000/svg" width="30" height="30" viewBox="0 0 30 30" fill="none">
  <g clip-path="url(#clip0_327_4019)">
    <path d="M11.25 0H13.125C13.6223 0 14.0992 0.197544 14.4508 0.549175C14.8025 0.900806 15 1.37772 15 1.875H9.375C9.375 1.37772 9.57254 0.900806 9.92418 0.549175C10.2758 0.197544 10.7527 0 11.25 0Z" fill="#C1272D"/>
    <path d="M15.9375 0.9375H8.4375C8.17862 0.9375 7.96875 1.14737 7.96875 1.40625V2.34375C7.96875 2.60263 8.17862 2.8125 8.4375 2.8125H15.9375C16.1964 2.8125 16.4062 2.60263 16.4062 2.34375V1.40625C16.4062 1.14737 16.1964 0.9375 15.9375 0.9375Z" fill="#FFCC00"/>
    <path d="M22.5 8.4375V29.0625C22.4993 29.3109 22.4002 29.5489 22.2246 29.7246C22.0489 29.9002 21.8109 29.9993 21.5625 30H2.8125C2.56409 29.9993 2.32606 29.9002 2.15041 29.7246C1.97475 29.5489 1.87574 29.3109 1.875 29.0625V8.4375C1.87525 6.69709 2.56673 5.02804 3.79739 3.79739C5.02804 2.56673 6.69709 1.87525 8.4375 1.875H15.9375C17.6779 1.87525 19.347 2.56673 20.5776 3.79739C21.8083 5.02804 22.4998 6.69709 22.5 8.4375Z" fill="#FFD447"/>
    <path d="M24.375 10.7812H25.7812C26.1542 10.7813 26.5119 10.9294 26.7756 11.1931C27.0393 11.4569 27.1875 11.8145 27.1875 12.1875V13.125C27.1875 13.498 27.0393 13.8556 26.7756 14.1194C26.5119 14.3831 26.1542 14.5312 25.7812 14.5312H24.375V10.7812Z" fill="#666666"/>
    <path d="M22.9688 9.84375H24.375C24.748 9.84375 25.1056 9.99191 25.3694 10.2556C25.6331 10.5194 25.7812 10.877 25.7812 11.25V14.0625C25.7812 14.4355 25.6331 14.7931 25.3694 15.0569C25.1056 15.3206 24.748 15.4688 24.375 15.4688H22.9688V9.84375Z" fill="#4D4D4D"/>
    <path d="M28.125 4.6875C29.1605 4.6875 30 3.84803 30 2.8125C30 1.77697 29.1605 0.9375 28.125 0.9375C27.0895 0.9375 26.25 1.77697 26.25 2.8125C26.25 3.84803 27.0895 4.6875 28.125 4.6875Z" fill="#C1272D"/>
    <path d="M1.875 24.375H22.5V25.7812H1.875V24.375Z" fill="#C1272D"/>
    <path d="M1.875 25.3125H22.5V29.0625C22.5 29.3111 22.4012 29.5496 22.2254 29.7254C22.0496 29.9012 21.8111 30 21.5625 30H2.8125C2.56386 30 2.3254 29.9012 2.14959 29.7254C1.97377 29.5496 1.875 29.3111 1.875 29.0625V25.3125Z" fill="#FFE878"/>
    <path d="M1.875 27.1875H22.5V28.125H1.875V27.1875Z" fill="#C1272D"/>
    <path d="M15.9375 26.25H8.4375C7.66085 26.25 7.03125 26.8796 7.03125 27.6562C7.03125 28.4329 7.66085 29.0625 8.4375 29.0625H15.9375C16.7142 29.0625 17.3438 28.4329 17.3438 27.6562C17.3438 26.8796 16.7142 26.25 15.9375 26.25Z" fill="#C1272D"/>
    <path d="M15.9375 26.7188H8.4375C7.91973 26.7188 7.5 27.1385 7.5 27.6562C7.5 28.174 7.91973 28.5938 8.4375 28.5938H15.9375C16.4553 28.5938 16.875 28.174 16.875 27.6562C16.875 27.1385 16.4553 26.7188 15.9375 26.7188Z" fill="white"/>
    <path d="M16.4062 21.5625H4.21875C3.70098 21.5625 3.28125 21.9822 3.28125 22.5C3.28125 23.0178 3.70098 23.4375 4.21875 23.4375H16.4062C16.924 23.4375 17.3438 23.0178 17.3438 22.5C17.3438 21.9822 16.924 21.5625 16.4062 21.5625Z" fill="#FFE878"/>
    <path d="M18.75 21.5625H21.0938V23.4375H18.75V21.5625Z" fill="#333333"/>
    <path d="M19.2188 22.0312H20.625V22.9688H19.2188V22.0312Z" fill="black"/>
    <path d="M24.375 6.43594V18.8812C24.3758 19.1054 24.2956 19.3223 24.1492 19.492C24.0028 19.6616 23.8 19.7727 23.5781 19.8047C22.6547 19.9406 21.6844 20.0625 20.6766 20.1703C17.857 20.4727 15.0233 20.6244 12.1875 20.625C8.3776 20.6249 4.57258 20.3524 0.801569 19.8094C0.57846 19.7755 0.374892 19.6628 0.227819 19.4916C0.0807458 19.3204 -8.2769e-05 19.1022 6.29744e-06 18.8766V6.43125C-0.000818332 6.20712 0.0793691 5.99024 0.2258 5.82055C0.37223 5.65086 0.575042 5.5398 0.796881 5.50781C8.34968 4.41564 16.0202 4.41406 23.5734 5.50313C23.7966 5.537 24.0001 5.64975 24.1472 5.8209C24.2943 5.99206 24.3751 6.21027 24.375 6.43594Z" fill="#FFCC00"/>
    <path d="M22.0312 7.5H2.34375C1.82598 7.5 1.40625 7.91973 1.40625 8.4375V16.875C1.40625 17.3928 1.82598 17.8125 2.34375 17.8125H22.0312C22.549 17.8125 22.9688 17.3928 22.9688 16.875V8.4375C22.9688 7.91973 22.549 7.5 22.0312 7.5Z" fill="white"/>
    <path d="M13.8734 9.375C13.86 9.37624 13.8471 9.38021 13.8354 9.38666C13.8237 9.39312 13.8134 9.40192 13.8052 9.41251C13.797 9.42311 13.7911 9.43528 13.7878 9.44826C13.7846 9.46124 13.784 9.47476 13.7862 9.48797C13.8002 9.63891 13.8063 9.88781 13.6835 9.88781C13.5077 9.88781 12.7165 9.375 11.8371 9.375C11.5048 9.37466 11.1813 9.48243 10.9156 9.68203C10.8574 9.72469 10.782 9.67453 10.782 9.59438V9.47719C10.7837 9.45207 10.7754 9.42729 10.759 9.40818C10.7426 9.38907 10.7194 9.37715 10.6943 9.375H9.46337C9.43812 9.37704 9.41469 9.38897 9.39818 9.40819C9.38168 9.42742 9.37344 9.45238 9.37525 9.47766V12.3488C9.37356 12.3739 9.38187 12.3988 9.39836 12.4179C9.41485 12.437 9.4382 12.4489 9.46337 12.4509H10.6943C10.7194 12.4488 10.7426 12.4369 10.759 12.4178C10.7754 12.3987 10.7837 12.3739 10.782 12.3488V11.6606C10.7815 11.6331 10.7914 11.6063 10.8096 11.5856C10.9756 11.4042 11.1762 11.2205 11.3098 11.2205C11.5732 11.2205 11.7495 11.4258 12.2768 11.4258C12.5785 11.4287 12.8767 11.3601 13.1468 11.2256C12.4433 11.626 11.844 12.1865 11.3974 12.8616C10.8673 13.7452 10.7285 15.39 10.7004 15.8278C10.6986 15.8408 10.6994 15.8541 10.7029 15.8668C10.7064 15.8794 10.7124 15.8913 10.7206 15.9016C10.7288 15.9118 10.739 15.9203 10.7506 15.9265C10.7622 15.9327 10.775 15.9364 10.7881 15.9375H12.874C12.8877 15.9362 12.9009 15.932 12.9129 15.9253C12.9249 15.9185 12.9353 15.9093 12.9435 15.8982C12.9517 15.8872 12.9574 15.8745 12.9604 15.8611C12.9634 15.8477 12.9635 15.8338 12.9607 15.8203C12.6977 13.9688 14.306 11.1117 14.651 10.8103C14.936 10.5609 14.9899 9.77109 15.0002 9.48188C15.0016 9.46905 15.0004 9.45608 14.9967 9.44373C14.993 9.43138 14.9868 9.41989 14.9786 9.40994C14.9704 9.39999 14.9603 9.39177 14.9489 9.38578C14.9375 9.37978 14.925 9.37611 14.9121 9.375H13.8734ZM6.37337 9.375C6.36004 9.37624 6.34711 9.38021 6.33538 9.38666C6.32365 9.39312 6.31337 9.40192 6.3052 9.41251C6.29702 9.42311 6.29111 9.43528 6.28784 9.44826C6.28456 9.46124 6.284 9.47476 6.28618 9.48797C6.30025 9.63891 6.30587 9.88781 6.18353 9.88781C6.00775 9.88781 5.2165 9.375 4.33712 9.375C4.00476 9.37466 3.68131 9.48243 3.41556 9.68203C3.35743 9.72469 3.28197 9.67453 3.28197 9.59438V9.47719C3.28365 9.45207 3.27542 9.42729 3.25902 9.40818C3.24263 9.38907 3.21939 9.37715 3.19431 9.375H1.96337C1.93812 9.37704 1.91469 9.38897 1.89818 9.40819C1.88168 9.42742 1.87343 9.45238 1.87525 9.47766V12.3488C1.87356 12.3739 1.88186 12.3988 1.89836 12.4179C1.91485 12.437 1.9382 12.4489 1.96337 12.4509H3.19431C3.21931 12.4487 3.24243 12.4367 3.25872 12.4176C3.27502 12.3985 3.28319 12.3738 3.2815 12.3488V11.6606C3.28104 11.6331 3.29091 11.6063 3.30915 11.5856C3.47509 11.4042 3.67572 11.2205 3.80931 11.2205C4.07275 11.2205 4.24853 11.4258 4.77634 11.4258C5.07808 11.4287 5.37621 11.3601 5.64634 11.2256C4.94285 11.626 4.34355 12.1865 3.89697 12.8616C3.36681 13.7452 3.22806 15.39 3.19993 15.8278C3.1981 15.8408 3.19895 15.8541 3.20242 15.8668C3.20589 15.8794 3.21191 15.8913 3.22012 15.9016C3.22833 15.9118 3.23854 15.9203 3.25015 15.9265C3.26175 15.9327 3.27449 15.9364 3.28759 15.9375H5.37353C5.38722 15.9362 5.40048 15.932 5.41245 15.9253C5.42443 15.9185 5.43484 15.9093 5.44302 15.8982C5.4512 15.8872 5.45696 15.8745 5.45993 15.8611C5.4629 15.8477 5.46301 15.8338 5.46025 15.8203C5.19728 13.9688 6.80556 11.1117 7.15056 10.8103C7.43556 10.5609 7.48947 9.77109 7.49978 9.48188C7.50113 9.46905 7.49992 9.45608 7.49621 9.44373C7.49249 9.43138 7.48635 9.41989 7.47815 9.40994C7.46994 9.39999 7.45984 9.39177 7.44842 9.38578C7.437 9.37978 7.4245 9.37611 7.41165 9.375H6.37337ZM21.3734 9.375C21.36 9.37624 21.3471 9.38021 21.3354 9.38666C21.3237 9.39312 21.3134 9.40192 21.3052 9.41251C21.297 9.42311 21.2911 9.43528 21.2878 9.44826C21.2846 9.46124 21.284 9.47476 21.2862 9.48797C21.3002 9.63891 21.3063 9.88781 21.1835 9.88781C21.0077 9.88781 20.2165 9.375 19.3371 9.375C19.0048 9.37466 18.6813 9.48243 18.4156 9.68203C18.3574 9.72469 18.282 9.67453 18.282 9.59438V9.47719C18.2837 9.45207 18.2754 9.42729 18.259 9.40818C18.2426 9.38907 18.2194 9.37715 18.1943 9.375H16.9634C16.9381 9.37704 16.9147 9.38897 16.8982 9.40819C16.8817 9.42742 16.8734 9.45238 16.8752 9.47766V12.3488C16.8736 12.3739 16.8819 12.3988 16.8984 12.4179C16.9148 12.437 16.9382 12.4489 16.9634 12.4509H18.1943C18.2194 12.4488 18.2426 12.4369 18.259 12.4178C18.2754 12.3987 18.2837 12.3739 18.282 12.3488V11.6606C18.2815 11.6331 18.2914 11.6063 18.3096 11.5856C18.4756 11.4042 18.6762 11.2205 18.8098 11.2205C19.0732 11.2205 19.249 11.4258 19.7768 11.4258C20.0785 11.4287 20.3767 11.3601 20.6468 11.2256C19.9433 11.626 19.344 12.1865 18.8974 12.8616C18.3673 13.7452 18.2285 15.39 18.2004 15.8278C18.1986 15.8408 18.1994 15.8541 18.2029 15.8668C18.2064 15.8794 18.2124 15.8913 18.2206 15.9016C18.2288 15.9118 18.239 15.9203 18.2506 15.9265C18.2622 15.9327 18.275 15.9364 18.2881 15.9375H20.374C20.3877 15.9362 20.401 15.932 20.4129 15.9253C20.4249 15.9185 20.4353 15.9093 20.4435 15.8982C20.4517 15.8872 20.4574 15.8745 20.4604 15.8611C20.4634 15.8477 20.4635 15.8338 20.4607 15.8203C20.1977 13.9688 21.806 11.1117 22.151 10.8103C22.436 10.5609 22.4899 9.77109 22.5002 9.48188C22.5016 9.46905 22.5004 9.45608 22.4967 9.44373C22.493 9.43138 22.4868 9.41989 22.4786 9.40994C22.4704 9.39999 22.4603 9.39177 22.4489 9.38578C22.4375 9.37978 22.425 9.37611 22.4121 9.375H21.3734Z" fill="#ED1C24"/>
    <path d="M7.96875 6.5625H8.90625V18.75H7.96875V6.5625ZM15.4688 7.03125H16.4062V19.2188H15.4688V7.03125Z" fill="#FFCC00"/>
    <path d="M20.625 20.1562V23.9062C20.625 25.0251 20.1805 26.0982 19.3894 26.8894C18.5982 27.6805 17.5251 28.125 16.4062 28.125H1.875V29.0625C1.87574 29.3109 1.97475 29.5489 2.15041 29.7246C2.32606 29.9002 2.56409 29.9993 2.8125 30H21.5625C21.8109 29.9993 22.0489 29.9002 22.2246 29.7246C22.4002 29.5489 22.4993 29.3109 22.5 29.0625V19.9514C22.8638 19.9041 23.2275 19.8562 23.5781 19.8047C23.8 19.7727 24.0028 19.6616 24.1492 19.492C24.2956 19.3223 24.3758 19.1054 24.375 18.8812V15C23.0063 18.9141 20.625 20.1562 20.625 20.1562Z" fill="black" fill-opacity="0.125"/>
    <path d="M27.6562 3.28125C28.174 3.28125 28.5938 2.86152 28.5938 2.34375C28.5938 1.82598 28.174 1.40625 27.6562 1.40625C27.1385 1.40625 26.7188 1.82598 26.7188 2.34375C26.7188 2.86152 27.1385 3.28125 27.6562 3.28125Z" fill="white" fill-opacity="0.19"/>
    <path d="M11.2083 7.5H13.5938L11.302 17.8125L9.375 17.7872L11.2083 7.5ZM3.70828 7.5H5.625L3.33328 17.8125L1.875 17.7872L3.70828 7.5ZM18.7083 7.5H20.625L18.3333 17.8125L16.875 17.7872L18.7083 7.5Z" fill="white" fill-opacity="0.2"/>
  </g>
  <defs>
    <clipPath id="clip0_327_4019">
      <rect width="30" height="30" fill="white"/>
    </clipPath>
  </defs>
</svg>