<svg width="24" height="24" viewBox="0 0 24 24" fill="none" xmlns="http://www.w3.org/2000/svg">
<g clip-path="url(#clip0_329_1797)">
<path d="M12.7863 3.18844L12.786 3.18798C12.3304 2.36195 11.8486 2.125 11.5193 2.13776C11.1899 2.15052 10.7275 2.42424 10.3358 3.28183C10.3356 3.28224 10.3355 3.28264 10.3353 3.28304L8.7801 6.74078C8.63409 7.0738 8.37269 7.37088 8.09158 7.59603C7.80898 7.82238 7.46319 8.01074 7.11291 8.08683L7.10901 8.08767L7.10901 8.08766L4.06957 8.72254C4.0695 8.72256 4.06942 8.72257 4.06935 8.72259C4.06931 8.7226 4.06927 8.72261 4.06923 8.72261C3.18198 8.90867 2.81949 9.2915 2.73188 9.61095C2.64405 9.93119 2.76098 10.4474 3.42687 11.0632C3.42711 11.0634 3.42734 11.0636 3.42757 11.0638L5.92948 13.3584C6.21795 13.623 6.42412 13.9957 6.54497 14.3647C6.66593 14.7341 6.7197 15.1554 6.64738 15.5377L6.64736 15.5378L6.08283 18.5186C6.0828 18.5188 6.08276 18.519 6.08273 18.5192C5.87055 19.6534 6.12403 20.1702 6.37466 20.3382C6.62546 20.5064 7.19983 20.5445 8.16737 19.9193L12.7863 3.18844ZM12.7863 3.18844L14.6205 6.50534L12.7863 3.18844ZM10.9749 18.1021L8.16766 19.9191L18.2893 18.0275C18.5935 19.1424 18.3835 19.6791 18.148 19.8669C17.9131 20.0542 17.3449 20.1394 16.3278 19.5918C16.3278 19.5918 16.3278 19.5918 16.3277 19.5918L13.3793 18.004C13.3792 18.004 13.3791 18.0039 13.379 18.0039C13.0116 17.8054 12.5689 17.7343 12.16 17.7522C11.751 17.7701 11.3196 17.8794 10.9753 18.1018L10.9749 18.1021ZM17.4871 15.0997L18.2892 18.0271L14.6207 6.50568C14.7943 6.82003 15.0779 7.09606 15.3776 7.29943C15.676 7.50196 16.0383 7.66504 16.3996 7.70654L19.4845 8.0943L19.4855 8.09443C20.387 8.20579 20.7801 8.55747 20.8938 8.8687C21.0079 9.18109 20.9336 9.70639 20.3198 10.377C20.3197 10.3771 20.3195 10.3773 20.3194 10.3775L18.0281 12.8661L18.0274 12.8668C17.7651 13.1529 17.588 13.5392 17.4954 13.9171C17.403 14.2941 17.3807 14.72 17.4866 15.0979C17.4867 15.0985 17.4869 15.0991 17.4871 15.0997Z" stroke="white"/>
</g>
<defs>
<clipPath id="clip0_329_1797">
<rect width="24" height="24" fill="white"/>
</clipPath>
</defs>
</svg>
