<svg xmlns="http://www.w3.org/2000/svg" width="30" height="30" viewBox="0 0 30 30" fill="none">
  <g clip-path="url(#clip0_327_4158)">
    <path d="M26.8697 29.5586H23.7344L15.1551 26.7545L6.26172 29.5586H3.12637C1.64137 29.5586 0.4375 28.3548 0.4375 26.8697V23.7344L4.13201 14.8935L0.4375 6.26172V3.12637C0.4375 1.64131 1.64131 0.4375 3.12637 0.4375H6.26172L15.3889 3.06104L23.7344 0.4375H26.8697C28.3547 0.4375 29.5586 1.64131 29.5586 3.12637V6.26172L26.9239 15.0637L29.5586 23.7344V26.8697C29.5586 28.3548 28.3548 29.5586 26.8697 29.5586Z" fill="#F6F9F9"/>
    <path d="M23.7366 12.09L26.9262 10.7031L29.5608 12.09V17.9142L26.7703 19.5102L23.7366 17.9142L22.1719 14.8127L23.7366 12.09Z" fill="#94AFE5"/>
    <path d="M23.7366 6.26562H29.5608V12.0898H23.7366L22.1719 8.9883L23.7366 6.26562ZM23.7366 17.9141H29.5608V23.7383H23.7366L22.1719 20.6367L23.7366 17.9141Z" fill="#ADC9FA"/>
    <path d="M6.26172 17.9124L3.07217 19.2993L0.4375 17.9124V12.0882L3.22809 10.4922L6.26172 12.0882L7.82646 15.1898L6.26172 17.9124Z" fill="#BAABEB"/>
    <path d="M6.26172 23.7383H0.4375V17.9141H6.26172L7.82646 21.0156L6.26172 23.7383ZM6.26172 12.0898H0.4375V6.26562H6.26172L7.82646 9.36717L6.26172 12.0898Z" fill="#CCBAEB"/>
    <path d="M17.9124 23.7366L19.2993 26.9262L17.9124 29.5608H12.0882L10.4922 26.7703L12.0882 23.7366L15.1898 22.1719L17.9124 23.7366Z" fill="#C8646D"/>
    <path d="M23.7383 23.7366V29.5608H17.9141V23.7366L21.0156 22.1719L23.7383 23.7366ZM12.0898 23.7366V29.5608H6.26562V23.7366L9.36717 22.1719L12.0898 23.7366Z" fill="#E27F83"/>
    <path d="M12.09 6.26172L10.7031 3.07217L12.09 0.4375H17.9142L19.5102 3.22809L17.9142 6.26172L14.8127 7.82646L12.09 6.26172Z" fill="#F1CD6B"/>
    <path d="M6.26562 6.26172V0.4375H12.0898V6.26172L8.9883 7.82646L6.26562 6.26172ZM17.9141 6.26172V0.4375H23.7383V6.26172L20.6367 7.82646L17.9141 6.26172Z" fill="#F5DD81"/>
    <path d="M23.7383 6.26562V23.7383H6.26562V6.26562H23.7383Z" fill="#BFE19F"/>
    <path d="M13.0777 15.0096H10.0959C9.30514 15.0096 8.66406 14.3685 8.66406 13.5777V10.5959C8.66406 9.80514 9.30514 9.16406 10.0959 9.16406H13.0777C13.8685 9.16406 14.5096 9.80514 14.5096 10.5959V13.5777C14.5095 14.3685 13.8685 15.0096 13.0777 15.0096Z" fill="#F6F9F9"/>
    <path d="M10.992 15.0094H10.0955C9.30508 15.0094 8.66406 14.3684 8.66406 13.5773V10.5955C8.66406 9.80508 9.30508 9.16406 10.0955 9.16406H10.992C10.201 9.16406 9.55996 9.80508 9.55996 10.5955V13.5773C9.55996 14.3684 10.201 15.0094 10.992 15.0094Z" fill="#DDDAEC"/>
    <path d="M19.898 20.8377H16.9162C16.1254 20.8377 15.4844 20.1966 15.4844 19.4058V16.424C15.4844 15.6333 16.1254 14.9922 16.9162 14.9922H19.898C20.6888 14.9922 21.3299 15.6333 21.3299 16.424V19.4058C21.3299 20.1966 20.6888 20.8377 19.898 20.8377Z" fill="#F6F9F9"/>
    <path d="M17.8123 20.8375H16.9158C16.1254 20.8375 15.4844 20.1965 15.4844 19.4055V16.4236C15.4844 15.6332 16.1254 14.9922 16.9158 14.9922H17.8123C17.0213 14.9922 16.3803 15.6332 16.3803 16.4236V19.4055C16.3803 20.1965 17.0213 20.8375 17.8123 20.8375Z" fill="#DDDAEC"/>
    <path d="M26.8717 0H3.12832C1.40338 0 0 1.40338 0 3.12832V26.8717C0 28.5966 1.40338 30 3.12832 30H26.8717C28.5966 30 30 28.5966 30 26.8717V22.3354C30 22.2188 29.9537 22.107 29.8713 22.0246C29.7889 21.9422 29.6771 21.8959 29.5605 21.8959C29.444 21.8959 29.3322 21.9422 29.2498 22.0246C29.1674 22.107 29.1211 22.2188 29.1211 22.3354V23.2969H24.1758V18.3516H29.1211V20.5775C29.1211 20.6941 29.1674 20.8059 29.2498 20.8883C29.3322 20.9707 29.444 21.017 29.5605 21.017C29.6771 21.017 29.7889 20.9707 29.8713 20.8883C29.9537 20.8059 30 20.6941 30 20.5775V3.12832C30 1.40338 28.5966 0 26.8717 0ZM12.5273 5.82422V0.878906H17.4727V5.82422H12.5273ZM6.70312 5.82422V0.878906H11.6484V5.82422H6.70312ZM17.4727 24.1758V29.1211H12.5273V24.1758H17.4727ZM23.2969 24.1758V29.1211H18.3516V24.1758H23.2969ZM11.6484 29.1211H6.70312V24.1758H11.6484V29.1211ZM0.878906 23.2969V18.3516H5.82422V23.2969H0.878906ZM5.82422 11.6484H4.42324C4.30669 11.6484 4.19492 11.6947 4.1125 11.7772C4.03009 11.8596 3.98379 11.9713 3.98379 12.0879C3.98379 12.2044 4.03009 12.3162 4.1125 12.3986C4.19492 12.481 4.30669 12.5273 4.42324 12.5273H5.82422V17.4727H0.878906V12.5273H2.66543C2.78198 12.5273 2.89376 12.481 2.97617 12.3986C3.05858 12.3162 3.10488 12.2044 3.10488 12.0879C3.10488 11.9713 3.05858 11.8596 2.97617 11.7772C2.89376 11.6947 2.78198 11.6484 2.66543 11.6484H0.878906V6.70312H5.82422V11.6484ZM18.3516 0.878906H23.2969V5.82422H18.3516V0.878906ZM24.1758 6.70312H29.1211V11.6484H24.1758V6.70312ZM29.1211 3.12832V5.82422H24.1758V0.878906H26.8717C28.112 0.878906 29.1211 1.88801 29.1211 3.12832ZM3.12832 0.878906H5.82422V5.82422H0.878906V3.12832C0.878906 1.88801 1.88801 0.878906 3.12832 0.878906ZM0.878906 26.8717V24.1758H5.82422V29.1211H3.12832C1.88801 29.1211 0.878906 28.112 0.878906 26.8717ZM29.1211 26.8717C29.1211 28.112 28.112 29.1211 26.8717 29.1211H24.1758V24.1758H29.1211V26.8717ZM6.70312 23.2969V6.70312H23.2969V23.2969H6.70312ZM24.1758 17.4727V12.5273H29.1211V17.4727H24.1758Z" fill="black"/>
    <path d="M13.0796 8.71875H10.0979C9.06603 8.71875 8.22656 9.55822 8.22656 10.5901V13.5718C8.22656 14.6037 9.06603 15.4431 10.0979 15.4431H13.0796C14.1115 15.4431 14.951 14.6037 14.951 13.5718V10.5901C14.951 9.55822 14.1115 8.71875 13.0796 8.71875ZM14.0721 13.5718C14.0721 14.119 13.6269 14.5642 13.0796 14.5642H10.0979C9.55066 14.5642 9.10547 14.119 9.10547 13.5718V10.5901C9.10547 10.0429 9.55066 9.59766 10.0979 9.59766H13.0796C13.6269 9.59766 14.0721 10.0429 14.0721 10.5901V13.5718Z" fill="black"/>
    <path d="M11.59 11.6115C11.4734 11.6115 11.3617 11.6578 11.2793 11.7402C11.1968 11.8226 11.1505 11.9344 11.1505 12.0509V12.0802C11.1505 12.1968 11.1968 12.3086 11.2793 12.391C11.3617 12.4734 11.4734 12.5197 11.59 12.5197C11.7065 12.5197 11.8183 12.4734 11.9007 12.391C11.9832 12.3086 12.0295 12.1968 12.0295 12.0802V12.0509C12.0295 11.9344 11.9832 11.8226 11.9007 11.7402C11.8183 11.6578 11.7065 11.6115 11.59 11.6115ZM12.9515 10.25C12.835 10.25 12.7232 10.2963 12.6408 10.3787C12.5584 10.4611 12.5121 10.5729 12.5121 10.6895V10.7188C12.5121 10.8353 12.5584 10.9471 12.6408 11.0295C12.7232 11.1119 12.835 11.1582 12.9515 11.1582C13.0681 11.1582 13.1799 11.1119 13.2623 11.0295C13.3447 10.9471 13.391 10.8353 13.391 10.7188V10.6895C13.391 10.5729 13.3447 10.4611 13.2623 10.3787C13.1799 10.2963 13.0681 10.25 12.9515 10.25ZM10.2285 12.973C10.112 12.973 10.0002 13.0193 9.91778 13.1017C9.83536 13.1842 9.78906 13.2959 9.78906 13.4125V13.4418C9.78906 13.5583 9.83536 13.6701 9.91778 13.7525C10.0002 13.8349 10.112 13.8812 10.2285 13.8812C10.3451 13.8812 10.4568 13.8349 10.5393 13.7525C10.6217 13.6701 10.668 13.5583 10.668 13.4418V13.4125C10.668 13.2959 10.6217 13.1842 10.5393 13.1017C10.4568 13.0193 10.3451 12.973 10.2285 12.973ZM19.9006 14.551H16.9188C15.887 14.551 15.0475 15.3905 15.0475 16.4223V19.4041C15.0475 20.4359 15.887 21.2754 16.9188 21.2754H19.9006C20.9324 21.2754 21.7719 20.4359 21.7719 19.4041V16.4223C21.7719 15.3905 20.9324 14.551 19.9006 14.551ZM20.893 19.4041C20.893 19.9513 20.4478 20.3965 19.9006 20.3965H16.9188C16.3716 20.3965 15.9264 19.9513 15.9264 19.4041V16.4223C15.9264 15.8751 16.3716 15.4299 16.9188 15.4299H19.9006C20.4478 15.4299 20.893 15.8751 20.893 16.4223V19.4041Z" fill="black"/>
    <path d="M18.4089 17.4482C18.2923 17.4482 18.1806 17.4945 18.0981 17.5769C18.0157 17.6594 17.9694 17.7711 17.9694 17.8877V17.917C17.9694 18.0335 18.0157 18.1453 18.0981 18.2277C18.1806 18.3101 18.2923 18.3564 18.4089 18.3564C18.5254 18.3564 18.6372 18.3101 18.7196 18.2277C18.802 18.1453 18.8483 18.0335 18.8483 17.917V17.8877C18.8483 17.7711 18.802 17.6594 18.7196 17.5769C18.6372 17.4945 18.5254 17.4482 18.4089 17.4482ZM19.7704 16.9949C19.8869 16.9949 19.9987 16.9486 20.0811 16.8662C20.1635 16.7838 20.2098 16.672 20.2098 16.5555V16.5262C20.2098 16.4096 20.1635 16.2979 20.0811 16.2155C19.9987 16.133 19.8869 16.0867 19.7704 16.0867C19.6538 16.0867 19.542 16.133 19.4596 16.2155C19.3772 16.2979 19.3309 16.4096 19.3309 16.5262V16.5555C19.3309 16.672 19.3772 16.7838 19.4596 16.8662C19.542 16.9486 19.6538 16.9949 19.7704 16.9949ZM17.0473 18.8098C16.9308 18.8098 16.819 18.8561 16.7366 18.9385C16.6542 19.0209 16.6079 19.1327 16.6079 19.2492V19.2785C16.6079 19.3951 16.6542 19.5068 16.7366 19.5893C16.819 19.6717 16.9308 19.718 17.0473 19.718C17.1639 19.718 17.2757 19.6717 17.3581 19.5893C17.4405 19.5068 17.4868 19.3951 17.4868 19.2785V19.2492C17.4868 19.1327 17.4405 19.0209 17.3581 18.9385C17.2757 18.8561 17.1639 18.8098 17.0473 18.8098ZM19.785 18.8244H19.7557C19.6392 18.8244 19.5274 18.8707 19.445 18.9531C19.3626 19.0355 19.3163 19.1473 19.3163 19.2639C19.3163 19.3804 19.3626 19.4922 19.445 19.5746C19.5274 19.657 19.6392 19.7033 19.7557 19.7033H19.785C19.9016 19.7033 20.0133 19.657 20.0958 19.5746C20.1782 19.4922 20.2245 19.3804 20.2245 19.2639C20.2245 19.1473 20.1782 19.0355 20.0958 18.9531C20.0133 18.8707 19.9016 18.8244 19.785 18.8244ZM17.062 16.1014H17.0327C16.9161 16.1014 16.8044 16.1477 16.722 16.2301C16.6395 16.3125 16.5932 16.4243 16.5932 16.5408C16.5932 16.6574 16.6395 16.7692 16.722 16.8516C16.8044 16.934 16.9161 16.9803 17.0327 16.9803H17.062C17.1785 16.9803 17.2903 16.934 17.3727 16.8516C17.4551 16.7692 17.5014 16.6574 17.5014 16.5408C17.5014 16.4243 17.4551 16.3125 17.3727 16.2301C17.2903 16.1477 17.1785 16.1014 17.062 16.1014ZM25.6779 4.98393H27.5484C27.6649 4.98393 27.7767 4.93763 27.8591 4.85522C27.9416 4.7728 27.9879 4.66103 27.9879 4.54448C27.9879 4.42793 27.9416 4.31615 27.8591 4.23374C27.7767 4.15132 27.6649 4.10502 27.5484 4.10502H26.7388L27.9453 2.89858C28.0277 2.81617 28.0739 2.7044 28.0739 2.58786C28.0739 2.47131 28.0277 2.35954 27.9453 2.27713C27.8628 2.19473 27.7511 2.14844 27.6345 2.14844C27.518 2.14844 27.4062 2.19473 27.3238 2.27713L26.1174 3.48358V2.67393C26.1174 2.55738 26.0711 2.4456 25.9887 2.36319C25.9062 2.28078 25.7945 2.23448 25.6779 2.23448C25.5614 2.23448 25.4496 2.28078 25.3672 2.36319C25.2848 2.4456 25.2385 2.55738 25.2385 2.67393V4.54448C25.2384 4.60218 25.2498 4.65933 25.2719 4.71264C25.294 4.76596 25.3263 4.81441 25.3671 4.85521C25.4079 4.89602 25.4564 4.92839 25.5097 4.95048C25.563 4.97256 25.6201 4.98393 25.6779 4.98393ZM2.374 3.19131H4.16662C4.28317 3.19131 4.39495 3.14501 4.47736 3.0626C4.55977 2.98019 4.60607 2.86841 4.60607 2.75186C4.60607 2.63531 4.55977 2.52353 4.47736 2.44112C4.39495 2.35871 4.28317 2.31241 4.16662 2.31241H2.374C2.25745 2.31241 2.14568 2.35871 2.06326 2.44112C1.98085 2.52353 1.93455 2.63531 1.93455 2.75186C1.93455 2.86841 1.98085 2.98019 2.06326 3.0626C2.14568 3.14501 2.25745 3.19131 2.374 3.19131ZM2.374 4.4383H4.16662C4.28317 4.4383 4.39495 4.392 4.47736 4.30959C4.55977 4.22718 4.60607 4.1154 4.60607 3.99885C4.60607 3.8823 4.55977 3.77052 4.47736 3.68811C4.39495 3.6057 4.28317 3.5594 4.16662 3.5594H2.374C2.25745 3.5594 2.14568 3.6057 2.06326 3.68811C1.98085 3.77052 1.93455 3.8823 1.93455 3.99885C1.93455 4.1154 1.98085 4.22718 2.06326 4.30959C2.14568 4.392 2.25745 4.4383 2.374 4.4383ZM26.4965 28.1706C27.3835 28.1706 28.1051 27.449 28.1051 26.562C28.1051 25.675 27.3835 24.9535 26.4965 24.9535C25.6095 24.9535 24.8879 25.6751 24.8879 26.562C24.8879 27.4489 25.6095 28.1706 26.4965 28.1706ZM26.4965 25.8324C26.8988 25.8324 27.2262 26.1597 27.2262 26.562C27.2262 26.9643 26.8989 27.2917 26.4965 27.2917C26.0942 27.2917 25.7669 26.9644 25.7669 26.562C25.7669 26.1597 26.0942 25.8324 26.4965 25.8324ZM4.94627 26.7724H4.56734V26.3125H4.94627C5.06282 26.3125 5.1746 26.2662 5.25701 26.1838C5.33942 26.1013 5.38572 25.9896 5.38572 25.873C5.38572 25.7565 5.33942 25.6447 5.25701 25.5623C5.1746 25.4799 5.06282 25.4336 4.94627 25.4336H4.56734V25.0546C4.56734 24.9381 4.52104 24.8263 4.43863 24.7439C4.35622 24.6615 4.24444 24.6152 4.12789 24.6152C4.01134 24.6152 3.89956 24.6615 3.81715 24.7439C3.73474 24.8263 3.68844 24.9381 3.68844 25.0546V25.4336H3.22854V25.0546C3.22854 24.9381 3.18224 24.8263 3.09982 24.7439C3.01741 24.6615 2.90563 24.6152 2.78908 24.6152C2.67253 24.6152 2.56076 24.6615 2.47834 24.7439C2.39593 24.8263 2.34963 24.9381 2.34963 25.0546V25.4336H1.9707C1.85415 25.4336 1.74238 25.4799 1.65996 25.5623C1.57755 25.6447 1.53125 25.7565 1.53125 25.873C1.53125 25.9896 1.57755 26.1013 1.65996 26.1838C1.74238 26.2662 1.85415 26.3125 1.9707 26.3125H2.34963V26.7724H1.9707C1.85415 26.7724 1.74238 26.8187 1.65996 26.9011C1.57755 26.9835 1.53125 27.0953 1.53125 27.2118C1.53125 27.3284 1.57755 27.4401 1.65996 27.5226C1.74238 27.605 1.85415 27.6513 1.9707 27.6513H2.34963V28.0302C2.34963 28.1467 2.39593 28.2585 2.47834 28.3409C2.56076 28.4233 2.67253 28.4697 2.78908 28.4697C2.90563 28.4697 3.01741 28.4233 3.09982 28.3409C3.18224 28.2585 3.22854 28.1467 3.22854 28.0302V27.6513H3.68844V28.0302C3.68844 28.1467 3.73474 28.2585 3.81715 28.3409C3.89956 28.4233 4.01134 28.4697 4.12789 28.4697C4.24444 28.4697 4.35622 28.4233 4.43863 28.3409C4.52104 28.2585 4.56734 28.1467 4.56734 28.0302V27.6513H4.94627C5.06282 27.6513 5.1746 27.605 5.25701 27.5226C5.33942 27.4401 5.38572 27.3284 5.38572 27.2118C5.38572 27.0953 5.33942 26.9835 5.25701 26.9011C5.1746 26.8187 5.06282 26.7724 4.94627 26.7724ZM3.22854 26.7724V26.3125H3.68844V26.7724H3.22854Z" fill="black"/>
  </g>
  <defs>
    <clipPath id="clip0_327_4158">
      <rect width="30" height="30" fill="white"/>
    </clipPath>
  </defs>
</svg>