<svg xmlns="http://www.w3.org/2000/svg" width="16" height="18" viewBox="0 0 16 18" fill="none">
  <path d="M14.6984 11.2825L8.65006 6.28833C8.38253 6.06709 8.05656 5.92821 7.71167 5.88854C7.36678 5.84887 7.01779 5.91011 6.70702 6.06484C6.39624 6.21957 6.13703 6.46113 5.96081 6.76025C5.78459 7.05936 5.69894 7.40317 5.71423 7.75L6.0934 15.5625C6.10745 15.8991 6.22609 16.2229 6.43281 16.4889C6.63953 16.755 6.92403 16.9499 7.24673 17.0467C7.40699 17.0966 7.57386 17.1222 7.74173 17.1225C7.99463 17.1222 8.24397 17.0629 8.46993 16.9494C8.6959 16.8358 8.89225 16.6711 9.0434 16.4683L10.3526 14.7358C10.4846 14.5622 10.655 14.4213 10.8504 14.3244C11.0459 14.2274 11.2611 14.1768 11.4792 14.1767H13.6517C13.989 14.1778 14.3184 14.0746 14.5948 13.8813C14.8712 13.6879 15.0811 13.4139 15.1957 13.0966C15.3103 12.7794 15.324 12.4344 15.235 12.1091C15.146 11.7837 14.9586 11.4939 14.6984 11.2792V11.2825ZM14.0209 12.6725C13.9953 12.7494 13.9455 12.8161 13.879 12.8625C13.8125 12.9088 13.7328 12.9325 13.6517 12.93H11.4792C11.0678 12.9308 10.6621 13.0265 10.2937 13.2096C9.9253 13.3927 9.60409 13.6583 9.35506 13.9858L8.0459 15.7183C7.99838 15.7845 7.93082 15.8336 7.85322 15.8583C7.77563 15.8831 7.69212 15.8822 7.61506 15.8558C7.5379 15.8344 7.46967 15.7887 7.42045 15.7256C7.37124 15.6624 7.34364 15.5851 7.34173 15.505L6.96256 7.6925C6.95665 7.58812 6.98174 7.48432 7.03468 7.39417C7.08761 7.30401 7.16603 7.23153 7.26006 7.18583C7.35466 7.13719 7.46151 7.11757 7.56721 7.12943C7.67292 7.14129 7.77277 7.1841 7.85423 7.2525L13.9026 12.25C13.9649 12.2985 14.01 12.3657 14.0313 12.4418C14.0526 12.5178 14.049 12.5987 14.0209 12.6725ZM5.71173 3.16667V1.5C5.71173 1.33424 5.77758 1.17527 5.89479 1.05806C6.012 0.940848 6.17097 0.875 6.33673 0.875C6.50249 0.875 6.66146 0.940848 6.77867 1.05806C6.89588 1.17527 6.96173 1.33424 6.96173 1.5V3.16667C6.96173 3.33243 6.89588 3.4914 6.77867 3.60861C6.66146 3.72582 6.50249 3.79167 6.33673 3.79167C6.17097 3.79167 6.012 3.72582 5.89479 3.60861C5.77758 3.4914 5.71173 3.33243 5.71173 3.16667ZM4.17423 4.85333C4.12002 4.95066 4.04072 5.03167 3.94457 5.08795C3.84843 5.14423 3.73897 5.17371 3.62756 5.17333C3.52094 5.17228 3.41642 5.14357 3.32423 5.09L1.65756 4.16C1.58406 4.12105 1.51907 4.06782 1.46641 4.00342C1.41375 3.93903 1.37447 3.86477 1.35088 3.785C1.32729 3.70523 1.31986 3.62156 1.32903 3.53888C1.33819 3.4562 1.36377 3.37618 1.40427 3.30352C1.44476 3.23085 1.49935 3.167 1.56484 3.11571C1.63033 3.06442 1.7054 3.02671 1.78564 3.00481C1.86589 2.98291 1.94971 2.97724 2.03218 2.98815C2.11464 2.99906 2.1941 3.02632 2.2659 3.06833L3.93256 4C4.00467 4.03996 4.06816 4.09378 4.11937 4.15838C4.17059 4.22297 4.20852 4.29706 4.23098 4.37637C4.25344 4.45569 4.25999 4.53867 4.25025 4.62052C4.24051 4.70238 4.21468 4.7815 4.17423 4.85333ZM3.56256 7.05417C3.6366 7.20247 3.64869 7.3741 3.59618 7.53132C3.54367 7.68854 3.43086 7.81846 3.28256 7.8925L1.6159 8.72583C1.5293 8.76938 1.43366 8.79194 1.33673 8.79167C1.19584 8.79184 1.05902 8.74442 0.948474 8.65707C0.837925 8.56973 0.76013 8.44759 0.72771 8.31048C0.69529 8.17338 0.710147 8.02933 0.76987 7.90173C0.829594 7.77412 0.93068 7.67044 1.05673 7.6075L2.7234 6.77417C2.79687 6.73738 2.87687 6.71544 2.95883 6.7096C3.04079 6.70377 3.1231 6.71415 3.20104 6.74016C3.27898 6.76616 3.35103 6.80728 3.41307 6.86117C3.4751 6.91505 3.5259 6.98063 3.56256 7.05417ZM9.1109 4.27917C9.03686 4.13087 9.02477 3.95923 9.07728 3.80201C9.12979 3.6448 9.2426 3.51488 9.3909 3.44083L11.0576 2.6075C11.2057 2.53498 11.3765 2.52395 11.5327 2.5768C11.6889 2.62965 11.8179 2.74211 11.8916 2.88966C11.9652 3.03721 11.9776 3.2079 11.926 3.36453C11.8743 3.52115 11.7629 3.65102 11.6159 3.72583L9.94923 4.55917C9.86263 4.60272 9.767 4.62527 9.67006 4.625C9.55397 4.62481 9.44022 4.59237 9.34148 4.5313C9.24275 4.47024 9.16292 4.38295 9.1109 4.27917Z" fill="white"/>
</svg>