<svg xmlns="http://www.w3.org/2000/svg" width="20" height="20" viewBox="0 0 20 20" fill="none">
  <path d="M13.7896 0H7.135C5.96061 0.00132102 5.00901 0.952969 5.00781 2.12736V17.8728C5.00896 19.0472 5.96065 19.9988 7.135 20H13.7896C14.9639 19.9988 15.9155 19.0471 15.9169 17.8728V2.12736C15.9156 0.952969 14.9639 0.00136364 13.7896 0ZM15.0077 17.8728C15.007 18.5453 14.462 19.0902 13.7896 19.0909H7.135C6.46252 19.0902 5.91753 18.5453 5.91685 17.8728V2.12736C5.91753 1.4547 6.46252 0.909717 7.135 0.909035H13.7896C14.462 0.909717 15.007 1.4547 15.0077 2.12736V17.8728Z" fill="white"/>
  <path d="M11.8225 1.82031H9.09523C8.84423 1.82031 8.64062 2.02371 8.64062 2.27474C8.64062 2.52578 8.84419 2.72935 9.09523 2.72935H11.8225C12.0735 2.72935 12.2769 2.52578 12.2769 2.27474C12.2769 2.02371 12.0735 1.82031 11.8225 1.82031ZM11.3679 17.2748C11.3679 17.777 10.9609 18.184 10.4589 18.184C9.95666 18.184 9.54966 17.777 9.54966 17.2748C9.54966 16.7727 9.95662 16.3657 10.4589 16.3657C10.9609 16.3657 11.3679 16.7727 11.3679 17.2748Z" fill="white"/>
</svg>