<svg xmlns="http://www.w3.org/2000/svg" width="20" height="20" viewBox="0 0 20 20" fill="none">
  <g clip-path="url(#clip0_1043_40558)">
    <path d="M10 20C15.5228 20 20 15.5228 20 10C20 4.47715 15.5228 0 10 0C4.47715 0 0 4.47715 0 10C0 15.5228 4.47715 20 10 20Z" fill="white"/>
    <path d="M4.57654 9.78644L14.2182 6.06894C14.6657 5.90727 15.0565 6.1781 14.9115 6.85477L14.9124 6.85394L13.2707 14.5881C13.149 15.1364 12.8232 15.2698 12.3674 15.0114L9.86737 13.1689L8.66154 14.3306C8.52821 14.4639 8.41571 14.5764 8.15737 14.5764L8.33487 12.0323L12.9682 7.84644C13.1699 7.66894 12.9232 7.56894 12.6574 7.7456L6.93154 11.3506L4.46321 10.5806C3.92737 10.4106 3.91571 10.0448 4.57654 9.78644Z" fill="#5D4761"/>
  </g>
  <defs>
    <clipPath id="clip0_1043_40558">
      <rect width="20" height="20" fill="white"/>
    </clipPath>
  </defs>
</svg>