<svg xmlns="http://www.w3.org/2000/svg" width="20" height="20" viewBox="0 0 20 20" fill="none">
  <path d="M5.7675 17.6544C7.06363 18.374 8.52189 18.7511 10.0044 18.75C14.8356 18.75 18.75 14.8269 18.75 9.99562C18.75 5.16438 14.8356 1.25 10.0044 1.25C5.17313 1.25 1.25 5.16438 1.25 9.99562C1.25 11.5494 1.6575 12.9931 2.3625 14.2581L1.25 18.75L5.7675 17.6544ZM6.25125 6.1325C6.35316 6.03714 6.47672 5.96797 6.61129 5.93095C6.74586 5.89393 6.88741 5.89018 7.02375 5.92L7.30438 5.97938C7.58438 6.03875 7.81375 6.22563 7.92375 6.48063L8.47563 7.70312C8.54258 7.85016 8.56541 8.01348 8.54134 8.17325C8.51726 8.33301 8.44732 8.48235 8.34 8.60313L8.00062 9.0025C7.94538 9.06738 7.91095 9.14738 7.90181 9.2321C7.89267 9.31682 7.90924 9.40233 7.94938 9.4775C8.95125 11.2775 10.2675 11.8638 10.8531 12.0419C10.9375 12.0691 11.0286 12.0673 11.1118 12.0366C11.195 12.0058 11.2655 11.9481 11.3119 11.8725L11.5581 11.49C11.7956 11.125 12.2631 10.9975 12.7806 11.2525L13.7994 11.7619C14.1906 11.9488 14.3681 12.4069 14.2244 12.815C13.7063 14.3175 12.3819 14.1306 12.3819 14.1306C9.44438 14.0544 7.1425 11.3456 6.14937 9.95312C5.69062 9.29938 5.41062 8.50937 5.49563 7.70312C5.58063 6.905 5.95375 6.40375 6.25125 6.1325Z" fill="white"/>
</svg>