<svg width="128" height="129" viewBox="0 0 128 129" fill="none" xmlns="http://www.w3.org/2000/svg">
<path d="M103.232 65.6964L98.8791 36.9498C98.7427 36.0494 98.1322 35.2826 97.2827 34.948L59.0106 19.7596L58.9914 19.7365L51.9089 16.9338C51.1003 16.6172 50.2309 16.65 49.4761 16.9776L53.0345 48.3845L103.188 68.2276C103.337 67.3893 103.345 66.5378 103.219 65.681L103.232 65.6964Z" fill="url(#paint0_linear_205_262)"/>
<path d="M53.0549 48.3941L28.2929 91.9479C28.7268 92.6274 29.3647 93.1766 30.1464 93.4765L37.9697 96.5611L77.9922 112.324C78.2391 112.418 78.5248 112.324 78.6533 112.087L99.2634 76.073L102.289 70.7936C102.747 69.9981 103.054 69.1319 103.216 68.2309L53.0626 48.3877L53.0549 48.3941Z" fill="url(#paint1_linear_205_262)"/>
<path d="M28.2922 91.9468L53.0542 48.3931L49.4958 16.9862C48.8961 17.25 48.3638 17.7048 48.0233 18.3123L44.4488 24.6058L25.7654 57.5395C25.1962 58.5448 24.9467 59.7004 25.0533 60.8466L27.7078 90.2876C27.7732 90.8831 27.9757 91.4558 28.2858 91.9391L28.2922 91.9468Z" fill="url(#paint2_linear_205_262)"/>
<path d="M62.8675 28.8524C63.6372 29.4353 64.507 29.8569 65.1569 30.1233C66.0473 30.4759 67.3448 30.8805 68.3114 30.2602L68.5349 29.9187C68.5838 29.7742 68.5918 29.6116 68.5691 29.4745C68.1106 27.6068 65.903 26.4501 64.6159 25.9328C63.7255 25.5802 62.4357 25.1692 61.4614 25.796C61.2433 26.0029 61.1531 26.2857 61.196 26.588C61.4144 27.5244 62.0902 28.276 62.8662 28.8665L62.8675 28.8524Z" fill="url(#paint3_linear_205_262)"/>
<path d="M63.9091 36.45C64.6787 37.0328 65.5485 37.4545 66.1984 37.7208C67.0889 38.0734 68.3863 38.478 69.353 37.8577L69.5764 37.5163C69.6254 37.3717 69.6334 37.2091 69.6106 37.0721C69.1521 35.2044 66.9445 34.0476 65.6575 33.5304C64.767 33.1778 63.4772 32.7668 62.4965 33.3858C62.2785 33.5928 62.1883 33.8756 62.2312 34.1778C62.4496 35.1142 63.1254 35.8658 63.9014 36.4564L63.9091 36.45Z" fill="url(#paint4_linear_205_262)"/>
<path d="M64.9457 44.0595C65.7153 44.6423 66.5851 45.064 67.235 45.3303C68.1254 45.6829 69.4229 46.0875 70.3896 45.4672L70.613 45.1258C70.662 44.9812 70.67 44.8186 70.6472 44.6815C70.1887 42.8139 67.9811 41.6571 66.6941 41.1399C65.8036 40.7873 64.5138 40.3763 63.5395 41.003C63.3214 41.21 63.2312 41.4928 63.2742 41.795C63.4925 42.7314 64.1683 43.483 64.9444 44.0735L64.9457 44.0595Z" fill="url(#paint5_linear_205_262)"/>
<path d="M82.2372 36.7507C83.0068 37.3336 83.8766 37.7553 84.5265 38.0216C85.417 38.3742 86.7145 38.7788 87.6811 38.1585L87.9046 37.8171C87.9535 37.6725 87.9615 37.5099 87.9387 37.3728C87.4802 35.5051 85.2726 34.3484 83.9856 33.8311C83.0952 33.4785 81.8054 33.0675 80.8247 33.6866C80.6066 33.8936 80.5164 34.1763 80.5593 34.4786C80.7777 35.415 81.4535 36.1666 82.2295 36.7571L82.2372 36.7507Z" fill="url(#paint6_linear_205_262)"/>
<path d="M83.2699 44.3563C84.0395 44.9392 84.9093 45.3609 85.5592 45.6272C86.4497 45.9798 87.7471 46.3844 88.7138 45.7641L88.9372 45.4226C88.9862 45.2781 89.0006 45.1232 88.9714 44.9784C88.5129 43.1107 86.3053 41.954 85.0183 41.4367C84.1279 41.0841 82.8381 40.6731 81.8637 41.2999C81.6456 41.5068 81.5555 41.7896 81.5984 42.0919C81.8167 43.0283 82.4926 43.7799 83.2686 44.3704L83.2699 44.3563Z" fill="url(#paint7_linear_205_262)"/>
<path d="M84.3114 51.95C85.0811 52.5328 85.9509 52.9545 86.6008 53.2208C87.4912 53.5734 88.7887 53.978 89.7553 53.3577L89.9788 53.0163C90.0277 52.8717 90.0357 52.7091 90.013 52.5721C89.5545 50.7044 87.3469 49.5476 86.0598 49.0304C85.1694 48.6778 83.8796 48.2668 82.8989 48.8858C82.6808 49.0928 82.5906 49.3756 82.6335 49.6778C82.8519 50.6142 83.5277 51.3659 84.3037 51.9564L84.3114 51.95Z" fill="url(#paint8_linear_205_262)"/>
<path d="M57.1427 69.3822C57.415 69.585 57.7117 69.7546 58.0328 69.891C60.076 70.6773 62.5064 69.8948 63.5663 68.1184C64.0173 67.3153 64.101 66.414 63.8031 65.5697C63.4657 64.6151 62.708 63.8275 61.7088 63.4222C59.6452 62.6268 57.266 63.3928 56.1754 65.1947C55.7244 65.9979 55.6329 66.9055 55.9309 67.7498C56.1549 68.3956 56.5853 68.9611 57.1491 69.3899L57.1427 69.3822Z" fill="url(#paint9_linear_205_262)"/>
<path d="M63.18 84.4224C63.4523 84.6252 63.749 84.7948 64.0701 84.9312C66.1351 85.7125 68.5065 84.9528 69.5958 83.165C70.0468 82.3619 70.1319 81.4466 69.834 80.6022C69.503 79.6553 68.7376 78.8741 67.7384 78.4688C65.7029 77.676 63.2738 78.4445 62.205 80.2413C61.7616 81.0381 61.6702 81.9457 61.9618 82.7824C62.1858 83.4281 62.6085 84 63.1723 84.4288L63.18 84.4224Z" fill="url(#paint10_linear_205_262)"/>
<path d="M68.9934 99.3374C69.2657 99.5402 69.5688 99.7175 69.8899 99.8539C71.9843 100.624 74.3558 99.864 75.4156 98.0877C75.8629 97.2487 75.9428 96.3116 75.6308 95.4659C75.2972 94.5472 74.5433 93.7954 73.5633 93.4132C71.4842 92.6306 69.105 93.3967 68.0375 95.1794C67.5903 96.0184 67.5116 96.9414 67.8172 97.7794C68.0375 98.3893 68.4487 98.9317 68.992 99.3515L68.9934 99.3374Z" fill="url(#paint11_linear_205_262)"/>
<path d="M41.015 38.6952C40.9277 36.8833 41.7536 34.9503 42.6209 33.4118C42.9974 32.7224 43.4546 32.005 44.1876 31.6826L44.3771 31.7073L44.5495 31.915C44.58 32.0457 44.6105 32.1763 44.6409 32.307C44.7141 34.1176 43.9037 36.0378 43.0415 37.5981C42.6662 38.2734 42.2206 38.9422 41.54 39.3121L41.2852 39.3027L41.2597 39.2719L41.1051 39.1013C41.0529 38.9757 41.0224 38.845 41.0137 38.7093L41.015 38.6952Z" fill="url(#paint12_linear_205_262)"/>
<path d="M29.3298 59.2993C29.2425 57.4874 30.067 55.5685 30.9356 54.0159C31.3135 53.3124 31.8234 52.4863 32.6228 52.2907L32.6778 52.3101L32.8438 52.5101C32.9038 52.6293 32.9406 52.7677 32.9493 52.9034C33.0148 54.7204 32.2134 56.6201 31.3435 58.1869C30.9759 58.8558 30.5303 59.5245 29.8497 59.8945L29.5949 59.885C29.5144 59.8349 29.4492 59.772 29.4148 59.6836L29.317 59.284L29.3298 59.2993Z" fill="url(#paint13_linear_205_262)"/>
<path d="M35.8542 55.7422C35.7656 53.9444 36.6018 51.9768 37.4537 50.451C37.8366 49.7694 38.2669 49.1134 38.9552 48.737L39.1204 48.7169L39.2099 48.7465L39.3416 48.8582C39.4271 49.0081 39.4831 49.1696 39.4956 49.3412C39.5829 51.1531 38.757 53.0861 37.8884 54.6387C37.5209 55.3076 37.0676 55.9827 36.387 56.3527L36.1667 56.3535L36.1322 56.3432L35.9763 56.1867C35.9253 56.047 35.8757 55.8933 35.8542 55.7422Z" fill="url(#paint14_linear_205_262)"/>
<path d="M42.3985 52.168C42.3189 50.3497 43.1294 48.4295 44.0057 46.8705C44.3605 46.1862 44.8522 45.4791 45.5584 45.1399L45.7619 45.1659L45.9191 45.3084C45.9918 45.4429 46.0338 45.6031 46.0475 45.7606C46.1131 47.5776 45.309 49.5055 44.4404 51.0581C44.087 51.7283 43.6119 52.4085 42.9389 52.7721L42.6842 52.7626L42.5219 52.5984C42.4632 52.4652 42.4277 52.3127 42.4062 52.1616L42.3985 52.168Z" fill="url(#paint15_linear_205_262)"/>
<path d="M30.6748 72.8026C30.5952 70.9843 31.4133 69.0577 32.282 67.5051C32.6585 66.8157 33.1144 66.1124 33.8333 65.7886L34.0369 65.8147C34.2222 65.9597 34.3089 66.1737 34.3148 66.4157C34.3867 68.2404 33.5763 70.1606 32.7076 71.7132C32.3478 72.3757 31.8855 73.0714 31.2139 73.4208L30.9591 73.4114C30.9591 73.4114 30.8722 73.3536 30.8402 73.3151C30.7484 73.1574 30.6923 72.996 30.6812 72.8103L30.6748 72.8026Z" fill="url(#paint16_linear_205_262)"/>
<defs>
<linearGradient id="paint0_linear_205_262" x1="77.4948" y1="26.896" x2="60.7282" y2="263.393" gradientUnits="userSpaceOnUse">
<stop stop-color="#E50656"/>
<stop offset="0.76" stop-color="#99002E"/>
</linearGradient>
<linearGradient id="paint1_linear_205_262" x1="67.6243" y1="-61.4416" x2="65.3294" y2="112.77" gradientUnits="userSpaceOnUse">
<stop stop-color="#E50656"/>
<stop offset="0.76" stop-color="#99002E"/>
</linearGradient>
<linearGradient id="paint2_linear_205_262" x1="93.6799" y1="-51.9044" x2="-29.4204" y2="185.996" gradientUnits="userSpaceOnUse">
<stop stop-color="#E50656"/>
<stop offset="0.76" stop-color="#99002E"/>
</linearGradient>
<linearGradient id="paint3_linear_205_262" x1="61.369" y1="28.3293" x2="68.4296" y2="27.684" gradientUnits="userSpaceOnUse">
<stop stop-color="#F6EBF8"/>
<stop offset="0.31" stop-color="#F1E8F7"/>
<stop offset="0.65" stop-color="#E4E2F4"/>
<stop offset="1" stop-color="#CFD7F0"/>
</linearGradient>
<linearGradient id="paint4_linear_205_262" x1="62.415" y1="35.9272" x2="69.4656" y2="35.2829" gradientUnits="userSpaceOnUse">
<stop stop-color="#F6EBF8"/>
<stop offset="0.31" stop-color="#F1E8F7"/>
<stop offset="0.65" stop-color="#E4E2F4"/>
<stop offset="1" stop-color="#CFD7F0"/>
</linearGradient>
<linearGradient id="paint5_linear_205_262" x1="63.4483" y1="43.5339" x2="70.4989" y2="42.8896" gradientUnits="userSpaceOnUse">
<stop stop-color="#F6EBF8"/>
<stop offset="0.31" stop-color="#F1E8F7"/>
<stop offset="0.65" stop-color="#E4E2F4"/>
<stop offset="1" stop-color="#CFD7F0"/>
</linearGradient>
<linearGradient id="paint6_linear_205_262" x1="80.7376" y1="36.2276" x2="87.7982" y2="35.5824" gradientUnits="userSpaceOnUse">
<stop stop-color="#F6EBF8"/>
<stop offset="0.31" stop-color="#F1E8F7"/>
<stop offset="0.65" stop-color="#E4E2F4"/>
<stop offset="1" stop-color="#CFD7F0"/>
</linearGradient>
<linearGradient id="paint7_linear_205_262" x1="81.7725" y1="43.8281" x2="88.8331" y2="43.1829" gradientUnits="userSpaceOnUse">
<stop stop-color="#F6EBF8"/>
<stop offset="0.31" stop-color="#F1E8F7"/>
<stop offset="0.65" stop-color="#E4E2F4"/>
<stop offset="1" stop-color="#CFD7F0"/>
</linearGradient>
<linearGradient id="paint8_linear_205_262" x1="82.8194" y1="51.4321" x2="89.87" y2="50.7878" gradientUnits="userSpaceOnUse">
<stop stop-color="#F6EBF8"/>
<stop offset="0.31" stop-color="#F1E8F7"/>
<stop offset="0.65" stop-color="#E4E2F4"/>
<stop offset="1" stop-color="#CFD7F0"/>
</linearGradient>
<linearGradient id="paint9_linear_205_262" x1="55.7877" y1="67.0186" x2="63.9736" y2="66.2705" gradientUnits="userSpaceOnUse">
<stop stop-color="#F6EBF8"/>
<stop offset="0.31" stop-color="#F1E8F7"/>
<stop offset="0.65" stop-color="#E4E2F4"/>
<stop offset="1" stop-color="#CFD7F0"/>
</linearGradient>
<linearGradient id="paint10_linear_205_262" x1="61.8313" y1="82.0602" x2="70.0172" y2="81.3121" gradientUnits="userSpaceOnUse">
<stop stop-color="#F6EBF8"/>
<stop offset="0.31" stop-color="#F1E8F7"/>
<stop offset="0.65" stop-color="#E4E2F4"/>
<stop offset="1" stop-color="#CFD7F0"/>
</linearGradient>
<linearGradient id="paint11_linear_205_262" x1="67.6616" y1="96.9825" x2="75.8176" y2="96.2371" gradientUnits="userSpaceOnUse">
<stop stop-color="#F6EBF8"/>
<stop offset="0.31" stop-color="#F1E8F7"/>
<stop offset="0.65" stop-color="#E4E2F4"/>
<stop offset="1" stop-color="#CFD7F0"/>
</linearGradient>
<linearGradient id="paint12_linear_205_262" x1="41.9532" y1="34.4976" x2="44.374" y2="36.3363" gradientUnits="userSpaceOnUse">
<stop stop-color="#F6EBF8"/>
<stop offset="0.31" stop-color="#F1E8F7"/>
<stop offset="0.65" stop-color="#E4E2F4"/>
<stop offset="1" stop-color="#CFD7F0"/>
</linearGradient>
<linearGradient id="paint13_linear_205_262" x1="30.2464" y1="55.1046" x2="32.6752" y2="56.9494" gradientUnits="userSpaceOnUse">
<stop stop-color="#F6EBF8"/>
<stop offset="0.31" stop-color="#F1E8F7"/>
<stop offset="0.65" stop-color="#E4E2F4"/>
<stop offset="1" stop-color="#CFD7F0"/>
</linearGradient>
<linearGradient id="paint14_linear_205_262" x1="36.7917" y1="51.5466" x2="39.2126" y2="53.3854" gradientUnits="userSpaceOnUse">
<stop stop-color="#F6EBF8"/>
<stop offset="0.31" stop-color="#F1E8F7"/>
<stop offset="0.65" stop-color="#E4E2F4"/>
<stop offset="1" stop-color="#CFD7F0"/>
</linearGradient>
<linearGradient id="paint15_linear_205_262" x1="43.3299" y1="47.9627" x2="45.7667" y2="49.8136" gradientUnits="userSpaceOnUse">
<stop stop-color="#F6EBF8"/>
<stop offset="0.31" stop-color="#F1E8F7"/>
<stop offset="0.65" stop-color="#E4E2F4"/>
<stop offset="1" stop-color="#CFD7F0"/>
</linearGradient>
<linearGradient id="paint16_linear_205_262" x1="31.6069" y1="68.6062" x2="34.0357" y2="70.451" gradientUnits="userSpaceOnUse">
<stop stop-color="#F6EBF8"/>
<stop offset="0.31" stop-color="#F1E8F7"/>
<stop offset="0.65" stop-color="#E4E2F4"/>
<stop offset="1" stop-color="#CFD7F0"/>
</linearGradient>
</defs>
</svg>
