<svg width="334" height="192" viewBox="0 0 334 192" fill="none" xmlns="http://www.w3.org/2000/svg">
<path d="M79.0964 5.22422C57.1563 39.8082 36.6416 75.4833 17.6038 112.155C11.9125 123.116 6.35415 134.175 0.930088 145.318C0.409515 146.335 0.244426 147.576 0.455467 148.974C0.314899 148.194 0.304841 147.461 0.430356 146.798C0.60585 148.043 0.767253 149.287 0.95683 150.533C1.09456 150.809 1.24638 151.085 1.38411 151.361C1.1226 149.59 0.86878 147.812 0.621349 146.042C-0.502695 149.197 2.08274 154.16 7.38243 155.973C43.068 168.656 78.8567 177.783 114.222 183.597C120.139 184.573 126.036 185.462 131.928 186.251C131.928 186.251 131.928 186.251 131.922 186.243C131.851 186.237 131.788 186.224 131.718 186.217C140.612 187.413 149.469 188.392 158.294 189.177C158.724 189.209 159.153 189.256 159.583 189.289C156.237 189 152.893 188.682 149.538 188.335C172.995 190.777 196.174 191.773 218.96 191.419C221.911 191.374 224.843 191.305 227.778 191.209C227.686 191.207 227.586 191.212 227.494 191.211C230.335 191.127 233.165 191.013 235.989 190.892C238.82 190.764 241.632 190.614 244.453 190.443C269.824 188.944 294.591 185.685 318.604 180.921C324.14 179.731 327.286 175.379 327.267 171.301C326.555 129.591 327.745 88.0444 330.818 46.7931C331.697 35.0436 332.721 23.3289 333.901 11.6287C334.164 9.40906 333.491 6.86106 331.236 5.91295C330.704 5.83506 330.179 5.75077 329.653 5.68057C329.823 5.68219 329.979 5.68255 330.149 5.68416C329.513 5.65346 328.888 5.73029 328.282 5.90832C301.165 13.8208 272.084 18.8665 241.616 20.5024C211.946 22.0989 180.958 20.4623 149.313 15.1217C130.078 11.8786 110.593 7.27019 91.0311 1.20584C91.0311 1.20584 91.0311 1.20585 91.0247 1.19815C86.1607 -0.184087 81.308 1.82922 79.1182 5.21913L79.0964 5.22422Z" fill="url(#paint0_linear_205_3)"/>
<defs>
<linearGradient id="paint0_linear_205_3" x1="29.4959" y1="79.5881" x2="374.1" y2="108.202" gradientUnits="userSpaceOnUse">
<stop stop-color="#F6EBF8"/>
<stop offset="0.31" stop-color="#F1E8F7"/>
<stop offset="0.65" stop-color="#E4E2F4"/>
<stop offset="1" stop-color="#CFD7F0"/>
</linearGradient>
</defs>
</svg>
